<?xml version="1.0" encoding="utf-8"?>
<!-- Generator: Adobe Illustrator 22.0.0, SVG Export Plug-In . SVG Version: 6.00 Build 0)  -->
<svg version="1.1" id="BACKGROUND_1_" xmlns="http://www.w3.org/2000/svg" xmlns:xlink="http://www.w3.org/1999/xlink" x="0px"
	 y="0px" viewBox="0 0 750 500" xml:space="preserve">
<style type="text/css">
	#BACKGROUND_1_ {background: linear-gradient(90deg, hsla(203, 18%, 23%, 1) 0%, hsla(203, 39%, 12%, 1) 100%);}
	#OBJECT {opacity: 0.3;}
	.st0{fill:url(#SVGID_1_);}
	.st1{fill:url(#SVGID_2_);}
	.st2{opacity:0.6;}
	.st3{opacity:0;}
	.st4{opacity:3.225806e-02;}
	.st5{opacity:6.451613e-02;}
	.st6{opacity:9.677419e-02;}
	.st7{opacity:0.129;}
	.st8{opacity:0.1613;}
	.st9{opacity:0.1935;}
	.st10{opacity:0.2258;}
	.st11{opacity:0.2581;}
	.st12{opacity:0.2903;}
	.st13{opacity:0.3226;}
	.st14{opacity:0.3548;}
	.st15{opacity:0.3871;}
	.st16{opacity:0.4194;}
	.st17{opacity:0.4516;}
	.st18{opacity:0.4839;}
	.st19{opacity:0.5161;}
	.st20{opacity:0.5484;}
	.st21{opacity:0.5806;}
	.st22{opacity:0.6129;}
	.st23{opacity:0.6452;}
	.st24{opacity:0.6774;}
	.st25{opacity:0.7097;}
	.st26{opacity:0.7419;}
	.st27{opacity:0.7742;}
	.st28{opacity:0.8065;}
	.st29{opacity:0.8387;}
	.st30{opacity:0.871;}
	.st31{opacity:0.9032;}
	.st32{opacity:0.9355;}
	.st33{opacity:0.9677;}
	.st34{fill:url(#SVGID_3_);}
	.st35{opacity:0.35;}
	.st36{fill:url(#SVGID_4_);}
	.st37{fill:url(#SVGID_5_);}
	.st38{opacity:0.31;}
	.st39{opacity:1.000000e-02;}
	.st40{opacity:4.193548e-02;}
	.st41{opacity:7.387096e-02;}
	.st42{opacity:0.1058;}
	.st43{opacity:0.1377;}
	.st44{opacity:0.1697;}
	.st45{opacity:0.2016;}
	.st46{opacity:0.2335;}
	.st47{opacity:0.2655;}
	.st48{opacity:0.2974;}
	.st49{opacity:0.3294;}
	.st50{opacity:0.3613;}
	.st51{opacity:0.3932;}
	.st52{opacity:0.4252;}
	.st53{opacity:0.4571;}
	.st54{opacity:0.489;}
	.st55{opacity:0.521;}
	.st56{opacity:0.5529;}
	.st57{opacity:0.5848;}
	.st58{opacity:0.6168;}
	.st59{opacity:0.6487;}
	.st60{opacity:0.6806;}
	.st61{opacity:0.7126;}
	.st62{opacity:0.7445;}
	.st63{opacity:0.7765;}
	.st64{opacity:0.8084;}
	.st65{opacity:0.8403;}
	.st66{opacity:0.8723;}
	.st67{opacity:0.9042;}
	.st68{opacity:0.9361;}
	.st69{opacity:0.9681;}
	.st70{fill:url(#SVGID_6_);}
	.st71{opacity:0.42;}
	.st72{fill:url(#SVGID_7_);}
	.st73{opacity:0.86;}
	.st75{opacity:0.18;}
	.st76{opacity:0.82;fill:#050514;}
	.st77{opacity:0.7455;fill:#050514;}
	.st78{opacity:0.6709;fill:#050514;}
	.st79{opacity:0.5964;fill:#050514;}
	.st80{opacity:0.5218;fill:#050514;}
	.st81{opacity:0.4473;fill:#050514;}
	.st82{opacity:0.3727;fill:#050514;}
	.st83{opacity:0.2982;fill:#050514;}
	.st84{opacity:0.2236;fill:#050514;}
	.st85{opacity:0.1491;fill:#050514;}
	.st86{opacity:7.454546e-02;fill:#050514;}
	.st87{opacity:0;fill:#050514;}
</style>
<g id="OBJECT">
	<g>
		<g>
			<g>
				<g>
					<linearGradient id="SVGID_1_" gradientUnits="userSpaceOnUse" x1="0" y1="250" x2="750" y2="250">
						<stop  offset="0" style="stop-color:#26282B"/>
						<stop  offset="0.5449" style="stop-color:#13151A"/>
						<stop  offset="1" style="stop-color:#090B11"/>
					</linearGradient>
					<rect y="1.6" class="st0" width="750" height="496.9"/>
					<linearGradient id="SVGID_2_" gradientUnits="userSpaceOnUse" x1="-44.3387" y1="96.3451" x2="404.6613" y2="499.3451">
						<stop  offset="0" style="stop-color:#26282B"/>
						<stop  offset="0.5449" style="stop-color:#13151A"/>
						<stop  offset="1" style="stop-color:#090B11"/>
					</linearGradient>
					<path class="st1" d="M0,51c0,0,109-8.8,178.9,213.4c27.4,87.2,91,89.1,164.8,60.5C627.8,214.7,562.7,428.6,750,447v51.4H0V51z"
						/>
				</g>
				<g>
					<g>
						<g class="st2">
							<path class="st3" d="M0,1.6v9.3c50.8,9,129.4,34.4,193.7,172c119.9,256.1,305.4-89.4,440,200.4
								c31.6,68.1,85.6,59.7,116.3,73.8V1.6H0z"/>
							<path class="st4" d="M0,1.6v9c50.8,9,129.8,35,194.2,172.4c119.2,254.1,304.9-89.7,439.5,199.8
								c31.6,68.1,85.6,59.7,116.3,73.7V1.6H0z"/>
							<path class="st5" d="M0,1.6v8.7c50.8,9,130.3,35.6,194.8,172.8c118.4,252.2,304.4-89.9,439,199.3
								c31.6,68,85.6,59.6,116.3,73.6V1.6H0z"/>
							<path class="st6" d="M0,1.6V10c50.8,9,130.7,36.2,195.3,173.2C313,433.4,499.2,93.1,633.7,381.9
								c31.6,67.9,85.6,59.5,116.3,73.6V1.6H0z"/>
							<path class="st7" d="M0,1.6v8.1c50.8,9,131.2,36.8,195.8,173.6c117,248.2,303.4-90.3,438,198.2
								C665.4,449.3,719.3,441,750,455V1.6H0z"/>
							<path class="st8" d="M0,1.6v7.8c50.8,9,131.7,37.4,196.3,174c116.2,246.2,302.9-90.5,437.5,197.7
								c31.6,67.8,85.6,59.4,116.3,73.4V1.6H0z"/>
							<path class="st9" d="M0,1.6v7.5c50.8,9,132.1,38,196.8,174.4c115.5,244.3,302.4-90.7,437,197.2
								C665.4,448.3,719.3,440,750,454V1.6H0z"/>
							<path class="st10" d="M0,1.6v7.2c50.8,9,132.6,38.6,197.3,174.8c114.8,242.3,301.9-90.9,436.4,196.6
								c31.6,67.6,85.6,59.3,116.3,73.2V1.6H0z"/>
							<path class="st11" d="M0,1.6v6.9c50.8,9,133,39.1,197.8,175.2c114,240.3,301.4-91.1,435.9,196.1
								C665.4,447.3,719.3,439,750,453V1.6H0z"/>
							<path class="st12" d="M0,1.6v6.6c50.8,8.9,133.5,39.7,198.3,175.7c113.3,238.3,300.9-91.3,435.4,195.6
								c31.6,67.4,85.6,59.1,116.3,73.1V1.6H0z"/>
							<path class="st13" d="M0,1.6v6.3c50.8,8.9,134,40.3,198.8,176.1c112.6,236.4,300.4-91.5,434.9,195
								c31.6,67.4,85.6,59.1,116.3,73V1.6H0z"/>
							<path class="st14" d="M0,1.6v6C50.8,16.5,134.4,48.5,199.3,184c111.8,234.4,299.8-91.8,434.4,194.5
								c31.6,67.3,85.6,59,116.3,72.9V1.6H0z"/>
							<path class="st15" d="M0,1.6v5.7c50.8,8.9,134.9,41.5,199.8,176.9c111.1,232.4,299.3-92,433.9,194
								c31.6,67.2,85.6,58.9,116.3,72.8V1.6H0z"/>
							<path class="st16" d="M0,1.6V7C50.8,15.9,135.4,49,200.3,184.3c110.4,230.4,298.8-92.2,433.4,193.4
								c31.6,67.1,85.6,58.9,116.3,72.7V1.6H0z"/>
							<path class="st17" d="M0,1.6v5.1c50.8,8.9,135.8,42.7,200.9,177.7C310.5,412.8,499.2,92,633.7,377.3
								c31.6,67.1,85.6,58.8,116.3,72.6V1.6H0z"/>
							<path class="st18" d="M0,1.6v4.8c50.8,8.9,136.3,43.3,201.4,178.1C310.2,411,499.2,91.9,633.7,376.8
								c31.6,67,85.6,58.7,116.3,72.6V1.6H0z"/>
							<path class="st19" d="M0,1.6v4.5c50.8,8.9,136.7,43.8,201.9,178.5C310,409.1,499.2,91.8,633.7,376.4
								c31.6,66.9,85.6,58.7,116.3,72.5V1.6H0z"/>
							<path class="st20" d="M0,1.6v4.2c50.8,8.9,137.2,44.4,202.4,178.9c107.4,222.5,296.8-93,431.4,191.3
								c31.6,66.8,85.6,58.6,116.3,72.4V1.6H0z"/>
							<path class="st21" d="M0,1.6v3.9c50.8,8.9,137.7,45,202.9,179.4c106.7,220.6,296.3-93.2,430.9,190.8
								c31.6,66.8,85.6,58.5,116.3,72.3V1.6H0z"/>
							<path class="st22" d="M0,1.6v3.6C50.8,14,138.1,50.8,203.4,184.9c105.9,218.6,295.8-93.4,430.3,190.2
								c31.6,66.7,85.6,58.5,116.3,72.2V1.6H0z"/>
							<path class="st23" d="M0,1.6v3.3C50.8,13.7,138.6,51.1,203.9,185c105.2,216.6,295.3-93.6,429.8,189.7
								c31.6,66.6,85.6,58.4,116.3,72.1V1.6H0z"/>
							<path class="st24" d="M0,1.6v3c50.8,8.8,139.1,46.8,204.4,180.6c104.5,214.6,294.8-93.9,429.3,189.2
								c31.6,66.5,85.6,58.3,116.3,72.1V1.6H0z"/>
							<path class="st25" d="M0,1.6v2.7c50.8,8.8,139.5,47.4,204.9,181c103.7,212.7,294.3-94.1,428.8,188.6
								c31.6,66.5,85.6,58.3,116.3,72V1.6H0z"/>
							<path class="st26" d="M0,1.6V4c50.8,8.8,140,47.9,205.4,181.4c103,210.7,293.7-94.3,428.3,188.1
								c31.6,66.4,85.6,58.2,116.3,71.9V1.6H0z"/>
							<path class="st27" d="M0,1.6v2.1c50.8,8.8,140.4,48.5,205.9,181.8C308.2,394.2,499.2,91,633.7,373
								c31.6,66.3,85.6,58.1,116.3,71.8V1.6H0z"/>
							<path class="st28" d="M0,1.6v1.8c50.8,8.8,140.9,49.1,206.4,182.2c101.5,206.7,292.7-94.7,427.3,187
								c31.6,66.2,85.6,58.1,116.3,71.7V1.6H0z"/>
							<path class="st29" d="M0,1.6v1.5c50.8,8.8,141.4,49.7,207,182.6c100.8,204.8,292.2-94.9,426.8,186.5
								c31.6,66.2,85.6,58,116.3,71.7V1.6H0z"/>
							<path class="st30" d="M0,1.6v1.2c50.8,8.8,141.8,50.3,207.5,183.1c100.1,202.8,291.7-95.1,426.3,185.9
								c31.6,66.1,85.6,57.9,116.3,71.6V1.6H0z"/>
							<path class="st31" d="M0,1.6v0.9c50.8,8.8,142.3,50.9,208,183.5c99.3,200.8,291.2-95.3,425.8,185.4
								c31.6,66,85.6,57.9,116.3,71.5V1.6H0z"/>
							<path class="st32" d="M0,1.6v0.6C50.8,10.9,142.8,53.6,208.5,186c98.6,198.8,290.7-95.5,425.3,184.9
								c31.6,65.9,85.6,57.8,116.3,71.4V1.6H0z"/>
							<path class="st33" d="M0,1.6v0.3c50.8,8.7,143.2,52.1,209,184.3C306.8,383,499.2,90.4,633.7,370.5
								c31.6,65.8,85.6,57.7,116.3,71.3V1.6H0z"/>
							<path d="M0,1.6L0,1.6c50.8,8.7,143.7,52.6,209.5,184.7c97.1,194.9,289.7-96,424.2,183.8c31.6,65.8,85.6,57.7,116.3,71.2V1.6
								H0z"/>
						</g>
						<linearGradient id="SVGID_3_" gradientUnits="userSpaceOnUse" x1="332.8138" y1="-20.2404" x2="813.8138" y2="376.7596">
							<stop  offset="0" style="stop-color:#3B3E44"/>
							<stop  offset="1" style="stop-color:#090B11"/>
						</linearGradient>
						<path class="st34" d="M0,1.6L0,1.6c50.8,8.5,143.7,51.6,209.5,181c97.1,190.9,289.7-94,424.2,180.1
							c31.6,64.4,85.6,56.5,116.3,69.8V1.6H0z"/>
					</g>
					<g>
						<g class="st35">
							<path class="st3" d="M750,420V1.6H265c-10.4,68.5-6.7,165.8,141.9,171.1C746.6,184.7,610.3,390.7,750,420z"/>
							<path class="st4" d="M750,418.6V1.6H265.3c-10.4,68.2-6.5,165.1,142,170.5C745.6,184.4,611.6,390.2,750,418.6z"/>
							<path class="st5" d="M750,417.3V1.6H265.7c-10.4,68-6.2,164.5,142.1,170C744.6,184,612.9,389.7,750,417.3z"/>
							<path class="st6" d="M750,415.9V1.6H266C255.6,69.4,260,165.4,408.1,171C743.6,183.6,614.2,389.2,750,415.9z"/>
							<path class="st7" d="M750,414.6V1.6H266.3c-10.4,67.6-5.7,163.2,142.2,168.9C742.6,183.3,615.5,388.7,750,414.6z"/>
							<path class="st8" d="M750,413.2V1.6H266.6c-10.4,67.3-5.4,162.5,142.3,168.3C741.6,182.9,616.7,388.2,750,413.2z"/>
							<path class="st9" d="M750,411.9V1.6H267c-10.4,67.1-5.2,161.9,142.4,167.8C740.6,182.5,618,387.7,750,411.9z"/>
							<path class="st10" d="M750,410.5V1.6H267.3c-10.3,66.9-4.9,161.2,142.5,167.2C739.6,182.2,619.3,387.2,750,410.5z"/>
							<path class="st11" d="M750,409.2V1.6H267.6c-10.3,66.7-4.6,160.5,142.5,166.7C738.6,181.8,620.6,386.7,750,409.2z"/>
							<path class="st12" d="M750,407.8V1.6H268c-10.3,66.5-4.4,159.9,142.6,166.1C737.6,181.4,621.9,386.2,750,407.8z"/>
							<path class="st13" d="M750,406.5V1.6H268.3C258,67.8,264.2,160.8,411,167.1C736.6,181.1,623.2,385.7,750,406.5z"/>
							<path class="st14" d="M750,405.1V1.6H268.6c-10.3,66-3.8,158.6,142.8,165C735.6,180.7,624.5,385.2,750,405.1z"/>
							<path class="st15" d="M750,403.7V1.6H268.9c-10.3,65.8-3.6,157.9,142.9,164.5C734.6,180.3,625.8,384.7,750,403.7z"/>
							<path class="st16" d="M750,402.4V1.6H269.3C259,67.1,266,158.8,412.2,165.5C733.6,180,627.1,384.2,750,402.4z"/>
							<path class="st17" d="M750,401V1.6H269.6c-10.3,65.3-3,156.6,143,163.4C732.6,179.6,628.4,383.7,750,401z"/>
							<path class="st18" d="M750,399.7V1.6H269.9c-10.2,65.1-2.8,156,143.1,162.8C731.6,179.3,629.7,383.3,750,399.7z"/>
							<path class="st19" d="M750,398.3V1.6H270.3c-10.2,64.9-2.5,155.3,143.2,162.3C730.6,178.9,631,382.8,750,398.3z"/>
							<path class="st20" d="M750,397V1.6H270.6c-10.2,64.7-2.2,154.7,143.3,161.8C729.6,178.5,632.3,382.3,750,397z"/>
							<path class="st21" d="M750,395.6V1.6H270.9c-10.2,64.4-2,154,143.3,161.2C728.6,178.2,633.6,381.8,750,395.6z"/>
							<path class="st22" d="M750,394.3V1.6H271.3c-10.2,64.2-1.7,153.3,143.4,160.7C727.6,177.8,634.9,381.3,750,394.3z"/>
							<path class="st23" d="M750,392.9V1.6H271.6c-10.2,64-1.4,152.7,143.5,160.1C726.5,177.4,636.2,380.8,750,392.9z"/>
							<path class="st24" d="M750,391.5V1.6H271.9c-10.2,63.8-1.2,152,143.6,159.6C725.5,177.1,637.5,380.3,750,391.5z"/>
							<path class="st25" d="M750,390.2V1.6H272.2c-10.2,63.5-0.9,151.4,143.7,159C724.5,176.7,638.8,379.8,750,390.2z"/>
							<path class="st26" d="M750,388.8V1.6H272.6c-10.1,63.3-0.6,150.7,143.7,158.5C723.5,176.3,640.1,379.3,750,388.8z"/>
							<path class="st27" d="M750,387.5V1.6H272.9c-10.1,63.1-0.4,150.1,143.8,157.9C722.5,176,641.4,378.8,750,387.5z"/>
							<path class="st28" d="M750,386.1V1.6H273.2c-10.1,62.9-0.1,149.4,143.9,157.4C721.5,175.6,642.7,378.3,750,386.1z"/>
							<path class="st29" d="M750,384.8V1.6H273.6c-10.1,62.7,0.2,148.8,144,156.8C720.5,175.3,644,377.8,750,384.8z"/>
							<path class="st30" d="M750,383.4V1.6H273.9C263.8,64,274.3,149.7,418,157.8C719.5,174.9,645.3,377.3,750,383.4z"/>
							<path class="st31" d="M750,382.1V1.6H274.2c-10.1,62.2,0.7,147.5,144.1,155.7C718.5,174.5,646.6,376.8,750,382.1z"/>
							<path class="st32" d="M750,380.7V1.6H274.5c-10.1,62,1,146.8,144.2,155.2C717.5,174.2,647.9,376.3,750,380.7z"/>
							<path class="st33" d="M750,379.3V1.6H274.9c-10.1,61.8,1.2,146.1,144.3,154.6C716.5,173.8,649.2,375.9,750,379.3z"/>
							<path d="M750,378V1.6H275.2c-10,61.5,1.5,145.5,144.4,154.1C715.5,173.4,650.5,375.4,750,378z"/>
						</g>
						<linearGradient id="SVGID_4_" gradientUnits="userSpaceOnUse" x1="396.4944" y1="187.5258" x2="874" y2="187.5258">
							<stop  offset="0" style="stop-color:#4A4D56"/>
							<stop  offset="0.3642" style="stop-color:#2D3037"/>
							<stop  offset="0.7664" style="stop-color:#13151B"/>
							<stop  offset="1" style="stop-color:#090B11"/>
						</linearGradient>
						<path class="st36" d="M750,373.5V1.6H275.2c-10,60.8,1.5,143.8,144.4,152.2C715.5,171.4,650.5,370.9,750,373.5z"/>
					</g>
					<g>
						<g class="st35">
							<path class="st3" d="M750,304.8V1.6H418.3c-80.6,49.3-3.8,184.9,91.3,144.6C774.2,34,672.7,243.8,750,304.8z"/>
							<path class="st4" d="M750,303.8V1.6H418.4c-80,49-3.5,183.7,91.5,143.6C774.4,33.4,673.7,243.7,750,303.8z"/>
							<path class="st5" d="M750,302.8V1.6H418.6c-79.5,48.8-3.2,182.5,91.8,142.5C774.6,32.8,674.6,243.6,750,302.8z"/>
							<path class="st6" d="M750,301.9V1.6H418.8c-78.9,48.5-2.8,181.3,92,141.5C774.8,32.2,675.6,243.6,750,301.9z"/>
							<path class="st7" d="M750,300.9V1.6H418.9c-78.4,48.3-2.5,180.1,92.3,140.4C775,31.6,676.5,243.5,750,300.9z"/>
							<path class="st8" d="M750,299.9V1.6H419.1c-77.8,48-2.2,178.9,92.5,139.4C775.2,31,677.5,243.4,750,299.9z"/>
							<path class="st9" d="M750,298.9V1.6H419.3c-77.3,47.7-1.8,177.7,92.8,138.4C775.4,30.4,678.5,243.3,750,298.9z"/>
							<path class="st10" d="M750,298V1.6H419.4c-76.7,47.5-1.5,176.5,93,137.3C775.6,29.8,679.4,243.2,750,298z"/>
							<path class="st11" d="M750,297V1.6H419.6c-76.1,47.2-1.2,175.3,93.3,136.3C775.8,29.2,680.4,243.2,750,297z"/>
							<path class="st12" d="M750,296V1.6H419.8c-75.6,46.9-0.9,174.1,93.5,135.2C776,28.6,681.3,243.1,750,296z"/>
							<path class="st13" d="M750,295V1.6H419.9c-75,46.7-0.5,172.9,93.8,134.2C776.2,28,682.3,243,750,295z"/>
							<path class="st14" d="M750,294.1V1.6H420.1c-74.5,46.4-0.2,171.7,94,133.2C776.4,27.4,683.2,242.9,750,294.1z"/>
							<path class="st15" d="M750,293.1V1.6H420.3c-73.9,46.1,0.1,170.5,94.3,132.1C776.6,26.8,684.2,242.8,750,293.1z"/>
							<path class="st16" d="M750,292.1V1.6H420.4c-73.4,45.9,0.4,169.3,94.5,131.1C776.8,26.2,685.2,242.8,750,292.1z"/>
							<path class="st17" d="M750,291.1V1.6H420.6c-72.8,45.6,0.8,168.1,94.8,130.1C777,25.7,686.1,242.7,750,291.1z"/>
							<path class="st18" d="M750,290.1V1.6H420.8c-72.2,45.4,1.1,166.9,95,129C777.2,25.1,687.1,242.6,750,290.1z"/>
							<path class="st19" d="M750,289.2V1.6H420.9c-71.7,45.1,1.4,165.7,95.3,128C777.4,24.5,688,242.5,750,289.2z"/>
							<path class="st20" d="M750,288.2V1.6H421.1c-71.1,44.8,1.7,164.5,95.5,126.9C777.6,23.9,689,242.4,750,288.2z"/>
							<path class="st21" d="M750,287.2V1.6H421.3c-70.6,44.6,2.1,163.3,95.8,125.9C777.8,23.3,690,242.3,750,287.2z"/>
							<path class="st22" d="M750,286.2V1.6H421.4c-70,44.3,2.4,162.1,96,124.9C778,22.7,690.9,242.3,750,286.2z"/>
							<path class="st23" d="M750,285.3V1.6H421.6c-69.5,44,2.7,160.9,96.3,123.8C778.2,22.1,691.9,242.2,750,285.3z"/>
							<path class="st24" d="M750,284.3V1.6H421.8c-68.9,43.8,3.1,159.7,96.5,122.8C778.4,21.5,692.8,242.1,750,284.3z"/>
							<path class="st25" d="M750,283.3V1.6H421.9c-68.3,43.5,3.4,158.5,96.8,121.7C778.6,20.9,693.8,242,750,283.3z"/>
							<path class="st26" d="M750,282.3V1.6H422.1c-67.8,43.2,3.7,157.4,97,120.7C778.8,20.3,694.7,241.9,750,282.3z"/>
							<path class="st27" d="M750,281.4V1.6H422.3c-67.2,43,4,156.2,97.2,119.7C779,19.7,695.7,241.9,750,281.4z"/>
							<path class="st28" d="M750,280.4V1.6H422.4c-66.7,42.7,4.4,155,97.5,118.6C779.2,19.1,696.7,241.8,750,280.4z"/>
							<path class="st29" d="M750,279.4V1.6H422.6c-66.1,42.5,4.7,153.8,97.7,117.6C779.4,18.5,697.6,241.7,750,279.4z"/>
							<path class="st30" d="M750,278.4V1.6H422.8c-65.5,42.2,5,152.6,98,116.6C779.6,17.9,698.6,241.6,750,278.4z"/>
							<path class="st31" d="M750,277.4V1.6H423c-65,41.9,5.3,151.4,98.2,115.5C779.7,17.3,699.5,241.5,750,277.4z"/>
							<path class="st32" d="M750,276.5V1.6H423.1c-64.4,41.7,5.7,150.2,98.5,114.5C779.9,16.7,700.5,241.5,750,276.5z"/>
							<path class="st33" d="M750,275.5V1.6H423.3c-63.9,41.4,6,149,98.7,113.4C780.1,16.1,701.5,241.4,750,275.5z"/>
							<path d="M750,274.5V1.6H423.5c-63.3,41.1,6.3,147.8,99,112.4C780.3,15.5,702.4,241.3,750,274.5z"/>
						</g>
						<linearGradient id="SVGID_5_" gradientUnits="userSpaceOnUse" x1="496.6513" y1="-7.7687" x2="988.6514" y2="284.2314">
							<stop  offset="0" style="stop-color:#565966"/>
							<stop  offset="1.206243e-02" style="stop-color:#555865"/>
							<stop  offset="0.4571" style="stop-color:#2C2E37"/>
							<stop  offset="0.8009" style="stop-color:#12151B"/>
							<stop  offset="1" style="stop-color:#090B11"/>
						</linearGradient>
						<path class="st37" d="M750,250.9V1.6H423.5c-63.3,37.6,6.3,135,99,102.7C780.3,14.3,702.4,220.5,750,250.9z"/>
					</g>
				</g>
			</g>
			<g>
				<g>
					<g class="st38">
						<path class="st39" d="M588.3,390.5c-141.6-250.2-369.1,187.7-445.7-89.2C99,143.4,39.9,98,0,88.1v410.3h654.5
							C635,469.7,613.1,434.3,588.3,390.5z"/>
						<path class="st40" d="M588.3,390.7C446.7,141,219.2,578,142.6,301.7C99,144.1,39.9,98.8,0,88.9v409.5h654.5
							C635,469.8,613.1,434.4,588.3,390.7z"/>
						<path class="st41" d="M588.3,390.9c-141.6-249.3-369.1,186.9-445.7-88.9C99,144.8,39.9,99.5,0,89.7v408.7h654.5
							C635,469.8,613.1,434.5,588.3,390.9z"/>
						<path class="st42" d="M588.3,391.1c-141.6-248.8-369.1,186.6-445.7-88.7C99,145.5,39.9,100.3,0,90.5v407.9h654.5
							C635,469.9,613.1,434.6,588.3,391.1z"/>
						<path class="st43" d="M588.3,391.4c-141.6-248.3-369.1,186.2-445.7-88.5C99,146.2,39.9,101.1,0,91.3v407.1h654.5
							C635,469.9,613.1,434.8,588.3,391.4z"/>
						<path class="st44" d="M588.3,391.6c-141.6-247.8-369.1,185.8-445.7-88.4C99,146.9,39.9,101.9,0,92.1v406.3h654.5
							C635,470,613.1,434.9,588.3,391.6z"/>
						<path class="st45" d="M588.3,391.8c-141.6-247.3-369.1,185.5-445.7-88.2C99,147.6,39.9,102.7,0,92.9v405.5h654.5
							C635,470,613.1,435,588.3,391.8z"/>
						<path class="st46" d="M588.3,392c-141.6-246.8-369.1,185.1-445.7-88C99,148.3,39.9,103.5,0,93.7v404.7h654.5
							C635,470.1,613.1,435.1,588.3,392z"/>
						<path class="st47" d="M588.3,392.2c-141.6-246.3-369.1,184.7-445.7-87.8C99,149,39.9,104.2,0,94.5v403.9h654.5
							C635,470.2,613.1,435.3,588.3,392.2z"/>
						<path class="st48" d="M588.3,392.4c-141.6-245.8-369.1,184.4-445.7-87.7C99,149.6,39.9,105,0,95.3v403.1h654.5
							C635,470.2,613.1,435.4,588.3,392.4z"/>
						<path class="st49" d="M588.3,392.6c-141.6-245.3-369.1,184-445.7-87.5C99,150.3,39.9,105.8,0,96.1v402.3h654.5
							C635,470.3,613.1,435.5,588.3,392.6z"/>
						<path class="st50" d="M588.3,392.8C446.7,148,219.2,576.5,142.6,305.5C99,151,39.9,106.6,0,96.9v401.5h654.5
							C635,470.3,613.1,435.6,588.3,392.8z"/>
						<path class="st51" d="M588.3,393c-141.6-244.4-369.1,183.3-445.7-87.1C99,151.7,39.9,107.4,0,97.7v400.7h654.5
							C635,470.4,613.1,435.8,588.3,393z"/>
						<path class="st52" d="M588.3,393.3c-141.6-243.9-369.1,182.9-445.7-87C99,152.4,39.9,108.1,0,98.5v399.9h654.5
							C635,470.4,613.1,435.9,588.3,393.3z"/>
						<path class="st53" d="M588.3,393.5C446.7,150.1,219.2,576,142.6,306.7C99,153.1,39.9,108.9,0,99.3v399.1h654.5
							C635,470.5,613.1,436,588.3,393.5z"/>
						<path class="st54" d="M588.3,393.7c-141.6-242.9-369.1,182.2-445.7-86.6C99,153.8,39.9,109.7,0,100.1v398.3h654.5
							C635,470.5,613.1,436.1,588.3,393.7z"/>
						<path class="st55" d="M588.3,393.9c-141.6-242.4-369.1,181.8-445.7-86.4C99,154.5,39.9,110.5,0,100.9v397.5h654.5
							C635,470.6,613.1,436.3,588.3,393.9z"/>
						<path class="st56" d="M588.3,394.1c-141.6-241.9-369.1,181.4-445.7-86.3C99,155.2,39.9,111.3,0,101.7v396.7h654.5
							C635,470.7,613.1,436.4,588.3,394.1z"/>
						<path class="st57" d="M588.3,394.3c-141.6-241.4-369.1,181.1-445.7-86.1C99,155.9,39.9,112.1,0,102.5v395.9h654.5
							C635,470.7,613.1,436.5,588.3,394.3z"/>
						<path class="st58" d="M588.3,394.5c-141.6-240.9-369.1,180.7-445.7-85.9C99,156.6,39.9,112.8,0,103.3v395.1h654.5
							C635,470.8,613.1,436.6,588.3,394.5z"/>
						<path class="st59" d="M588.3,394.7C446.7,154.3,219.2,575.1,142.6,309C99,157.3,39.9,113.6,0,104.1v394.3h654.5
							C635,470.8,613.1,436.8,588.3,394.7z"/>
						<path class="st60" d="M588.3,394.9c-141.6-240-369.1,180-445.7-85.6C99,158,39.9,114.4,0,104.9v393.5h654.5
							C635,470.9,613.1,436.9,588.3,394.9z"/>
						<path class="st61" d="M588.3,395.1c-141.6-239.5-369.1,179.6-445.7-85.4C99,158.7,39.9,115.2,0,105.7v392.7h654.5
							C635,470.9,613.1,437,588.3,395.1z"/>
						<path class="st62" d="M588.3,395.4c-141.6-239-369.1,179.2-445.7-85.2C99,159.4,39.9,116,0,106.5v391.9h654.5
							C635,471,613.1,437.1,588.3,395.4z"/>
						<path class="st63" d="M588.3,395.6c-141.6-238.5-369.1,178.9-445.7-85C99,160,39.9,116.7,0,107.3v391.1h654.5
							C635,471.1,613.1,437.3,588.3,395.6z"/>
						<path class="st64" d="M588.3,395.8c-141.6-238-369.1,178.5-445.7-84.9C99,160.7,39.9,117.5,0,108.1v390.3h654.5
							C635,471.1,613.1,437.4,588.3,395.8z"/>
						<path class="st65" d="M588.3,396c-141.6-237.5-369.1,178.1-445.7-84.7C99,161.4,39.9,118.3,0,108.9v389.5h654.5
							C635,471.2,613.1,437.5,588.3,396z"/>
						<path class="st66" d="M588.3,396.2c-141.6-237-369.1,177.8-445.7-84.5C99,162.1,39.9,119.1,0,109.7v388.7h654.5
							C635,471.2,613.1,437.6,588.3,396.2z"/>
						<path class="st67" d="M588.3,396.4c-141.6-236.6-369.1,177.4-445.7-84.4C99,162.8,39.9,119.9,0,110.5v387.9h654.5
							C635,471.3,613.1,437.8,588.3,396.4z"/>
						<path class="st68" d="M588.3,396.6c-141.6-236.1-369.1,177-445.7-84.2C99,163.5,39.9,120.7,0,111.3v387.1h654.5
							C635,471.3,613.1,437.9,588.3,396.6z"/>
						<path class="st69" d="M588.3,396.8c-141.6-235.6-369.1,176.7-445.7-84C99,164.2,39.9,121.4,0,112.1v386.3h654.5
							C635,471.4,613.1,438,588.3,396.8z"/>
						<path d="M588.3,397C446.7,162,219.2,573.4,142.6,313.2C99,164.9,39.9,122.2,0,112.9v385.5h654.5
							C635,471.4,613.1,438.1,588.3,397z"/>
					</g>
					<linearGradient id="SVGID_6_" gradientUnits="userSpaceOnUse" x1="0" y1="313.1068" x2="665.3771" y2="313.1068">
						<stop  offset="0" style="stop-color:#3B3E44"/>
						<stop  offset="1" style="stop-color:#090B11"/>
					</linearGradient>
					<path class="st70" d="M598.1,400.9c-144-226-375.3,169.5-453.1-80.6C100.6,177.7,40.5,136.7,0,127.8v370.7h665.4
						C645.6,472.5,623.3,440.5,598.1,400.9z"/>
				</g>
				<g>
					<g class="st71">
						<path class="st3" d="M495.7,426.4c-119.2-166.9-301.9,115.6-366.3-69.1C92.6,252,33.5,231.3,0,224.7v273.8h551.4
							C535.1,479.3,516.5,455.6,495.7,426.4z"/>
						<path class="st4" d="M495.7,426.7c-119.2-166.4-302.1,115.5-366.6-68.6C92.3,253.1,33.5,232.1,0,225.5v272.9h551.4
							C535.1,479.3,516.5,455.8,495.7,426.7z"/>
						<path class="st5" d="M495.7,426.9C376.5,261,193.3,542.3,128.8,358.8C92,254.1,33.5,233,0,226.4v272h551.4
							C535.1,479.4,516.5,455.9,495.7,426.9z"/>
						<path class="st6" d="M495.7,427.1C376.5,261.8,193,542.5,128.5,359.5C91.8,255.2,33.5,233.8,0,227.3v271.1h551.4
							C535.1,479.5,516.5,456,495.7,427.1z"/>
						<path class="st7" d="M495.7,427.4c-119.2-164.8-303,115.3-367.5-67.1C91.5,256.3,33.5,234.7,0,228.2v270.3h551.4
							C535.1,479.5,516.5,456.2,495.7,427.4z"/>
						<path class="st8" d="M495.7,427.6C376.5,263.3,192.4,542.8,128,361C91.2,257.3,33.5,235.5,0,229v269.4h551.4
							C535.1,479.6,516.5,456.3,495.7,427.6z"/>
						<path class="st9" d="M495.7,427.8c-119.2-163.7-303.6,115.1-368-66.1C90.9,258.4,33.5,236.4,0,229.9v268.5h551.4
							C535.1,479.6,516.5,456.4,495.7,427.8z"/>
						<path class="st10" d="M495.7,428c-119.2-163.2-303.8,115-368.3-65.6C90.6,259.5,33.5,237.2,0,230.8v267.6h551.4
							C535.1,479.7,516.5,456.6,495.7,428z"/>
						<path class="st11" d="M495.7,428.3c-119.2-162.7-304.1,114.9-368.6-65.1C90.3,260.5,33.5,238.1,0,231.7v266.8h551.4
							C535.1,479.8,516.5,456.7,495.7,428.3z"/>
						<path class="st12" d="M495.7,428.5c-119.2-162.1-304.4,114.8-368.9-64.6C90.1,261.6,33.5,239,0,232.5v265.9h551.4
							C535.1,479.8,516.5,456.8,495.7,428.5z"/>
						<path class="st13" d="M495.7,428.7C376.5,267.1,191,543.5,126.5,364.6C89.8,262.7,33.5,239.8,0,233.4v265h551.4
							C535.1,479.9,516.5,457,495.7,428.7z"/>
						<path class="st14" d="M495.7,429c-119.2-161.1-305,114.6-369.5-63.6C89.5,263.7,33.5,240.7,0,234.3v264.1h551.4
							C535.1,479.9,516.5,457.1,495.7,429z"/>
						<path class="st15" d="M495.7,429.2C376.5,268.7,190.4,543.7,126,366.1C89.2,264.8,33.5,241.5,0,235.2v263.3h551.4
							C535.1,480,516.5,457.3,495.7,429.2z"/>
						<path class="st16" d="M495.7,429.4c-119.2-160-305.5,114.4-370-62.6C88.9,265.9,33.5,242.4,0,236v262.4h551.4
							C535.1,480.1,516.5,457.4,495.7,429.4z"/>
						<path class="st17" d="M495.7,429.7C376.5,270.2,189.9,544,125.4,367.5C88.6,266.9,33.5,243.2,0,236.9v261.5h551.4
							C535.1,480.1,516.5,457.5,495.7,429.7z"/>
						<path class="st18" d="M495.7,429.9c-119.2-158.9-306.1,114.3-370.6-61.6C88.4,268,33.5,244.1,0,237.8v260.6h551.4
							C535.1,480.2,516.5,457.7,495.7,429.9z"/>
						<path class="st19" d="M495.7,430.1C376.5,271.7,189.3,544.3,124.8,369C88.1,269.1,33.5,244.9,0,238.7v259.8h551.4
							C535.1,480.2,516.5,457.8,495.7,430.1z"/>
						<path class="st20" d="M495.7,430.3C376.5,272.5,189,544.4,124.6,369.7C87.8,270.1,33.5,245.8,0,239.5v258.9h551.4
							C535.1,480.3,516.5,457.9,495.7,430.3z"/>
						<path class="st21" d="M495.7,430.6c-119.2-157.3-307,114-371.4-60.1C87.5,271.2,33.5,246.6,0,240.4v258h551.4
							C535.1,480.4,516.5,458.1,495.7,430.6z"/>
						<path class="st22" d="M495.7,430.8C376.5,274,188.5,544.7,124,371.2C87.2,272.3,33.5,247.5,0,241.3v257.1h551.4
							C535.1,480.4,516.5,458.2,495.7,430.8z"/>
						<path class="st23" d="M495.7,431c-119.2-156.3-307.5,113.8-372-59.1C86.9,273.3,33.5,248.3,0,242.2v256.3h551.4
							C535.1,480.5,516.5,458.4,495.7,431z"/>
						<path class="st24" d="M495.7,431.3C376.5,275.5,187.9,545,123.4,372.6C86.7,274.4,33.5,249.2,0,243v255.4h551.4
							C535.1,480.6,516.5,458.5,495.7,431.3z"/>
						<path class="st25" d="M495.7,431.5c-119.2-155.2-308.1,113.6-372.6-58.1C86.4,275.5,33.5,250.1,0,243.9v254.5h551.4
							C535.1,480.6,516.5,458.6,495.7,431.5z"/>
						<path class="st26" d="M495.7,431.7c-119.2-154.7-308.4,113.5-372.9-57.6C86.1,276.5,33.5,250.9,0,244.8v253.6h551.4
							C535.1,480.7,516.5,458.8,495.7,431.7z"/>
						<path class="st27" d="M495.7,432C376.5,277.8,187,545.4,122.6,374.8C85.8,277.6,33.5,251.8,0,245.7v252.8h551.4
							C535.1,480.7,516.5,458.9,495.7,432z"/>
						<path class="st28" d="M495.7,432.2c-119.2-153.6-309,113.3-373.4-56.6C85.5,278.6,33.5,252.6,0,246.5v251.9h551.4
							C535.1,480.8,516.5,459,495.7,432.2z"/>
						<path class="st29" d="M495.7,432.4C376.5,279.3,186.5,545.7,122,376.3C85.2,279.7,33.5,253.5,0,247.4v251h551.4
							C535.1,480.9,516.5,459.2,495.7,432.4z"/>
						<path class="st30" d="M495.7,432.6c-119.2-152.5-309.5,113.2-374-55.6C85,280.8,33.5,254.3,0,248.3v250.1h551.4
							C535.1,480.9,516.5,459.3,495.7,432.6z"/>
						<path class="st31" d="M495.7,432.9c-119.2-152-309.8,113.1-374.3-55.1C84.7,281.8,33.5,255.2,0,249.2v249.3h551.4
							C535.1,481,516.5,459.5,495.7,432.9z"/>
						<path class="st32" d="M495.7,433.1c-119.2-151.5-310.1,113-374.6-54.6C84.4,282.9,33.5,256,0,250v248.4h551.4
							C535.1,481,516.5,459.6,495.7,433.1z"/>
						<path class="st33" d="M495.7,433.3c-119.2-150.9-310.4,112.9-374.8-54.1C84.1,284,33.5,256.9,0,250.9v247.5h551.4
							C535.1,481.1,516.5,459.7,495.7,433.3z"/>
						<path d="M495.7,433.6c-119.2-150.4-310.7,112.8-375.1-53.6C83.8,285,33.5,257.7,0,251.8v246.6h551.4
							C535.1,481.2,516.5,459.9,495.7,433.6z"/>
					</g>
					<linearGradient id="SVGID_7_" gradientUnits="userSpaceOnUse" x1="84.864" y1="363.472" x2="562.864" y2="649.472">
						<stop  offset="0" style="stop-color:#565966"/>
						<stop  offset="1.206243e-02" style="stop-color:#555865"/>
						<stop  offset="0.4571" style="stop-color:#2C2E37"/>
						<stop  offset="0.8009" style="stop-color:#12151B"/>
						<stop  offset="1" style="stop-color:#090B11"/>
					</linearGradient>
					<path class="st72" d="M502.8,436.9c-120.9-142.7-315.2,107-380.6-50.9C85,296,34,270.1,0,264.4v234h559.3
						C542.8,482.1,524,461.8,502.8,436.9z"/>
				</g>
			</g>
		</g>
		<g>
		</g>
	</g>
</g>
</svg>
