<?xml version="1.0" encoding="utf-8"?>
<!-- Generator: Adobe Illustrator 27.5.0, SVG Export Plug-In . SVG Version: 6.00 Build 0)  -->
<svg version="1.1" xmlns="http://www.w3.org/2000/svg" xmlns:xlink="http://www.w3.org/1999/xlink" x="0px" y="0px"
	 viewBox="0 0 750 500" style="enable-background:new 0 0 750 500;" xml:space="preserve">
<g id="BACKGROUND">
	<rect style="fill:#008ED2;" width="750" height="500"/>
</g>
<g id="OBJECTS">
	<g>
		<defs>
			<rect id="SVGID_1_" width="750" height="500"/>
		</defs>
		<clipPath id="SVGID_00000021107542650856030070000015402645295390762650_">
			<use xlink:href="#SVGID_1_"  style="overflow:visible;"/>
		</clipPath>
		<path style="clip-path:url(#SVGID_00000021107542650856030070000015402645295390762650_);fill:#007599;" d="M379.572,63.668
			c18.65,15.21,36.943,31.211,58.172,42.547c29.447,15.724,63.206,21.701,96.551,23.283c24.063,1.141,48.328,0.094,71.919-4.781
			C664.803,112.609,717.64,75.67,750,25.457V0H283.573C317.967,16.588,349.87,39.446,379.572,63.668z"/>
		<path style="clip-path:url(#SVGID_00000021107542650856030070000015402645295390762650_);fill:#007599;" d="M97.663,0H0v398.73
			c3.561-9.592,8.218-18.789,14.024-27.362c31.342-46.278,89.535-74.692,105.343-128.303
			C141.43,168.236,67.751,89.217,91.233,14.821C92.846,9.712,94.995,4.692,97.663,0z"/>
		<path style="clip-path:url(#SVGID_00000021107542650856030070000015402645295390762650_);fill:#007599;" d="M750,456.572
			c-44.299-53.162-116.22-82.044-184.988-74.068c-19.114,2.217-38.151,7.182-54.781,16.863
			c-33.004,19.213-52.781,54.233-75.938,84.6c-4.162,5.458-8.498,10.816-13.008,16.033H750V456.572z"/>
		<path style="clip-path:url(#SVGID_00000021107542650856030070000015402645295390762650_);fill:#002933;" d="M546.971,30.483
			c27.991,3.678,51.134,23.309,70.276,44.06s36.595,43.9,60.709,58.581c19.693,11.989,43.203,17.598,66.188,15.789
			c4.358-0.343,9.093-1.145,11.996-4.413c2.741-3.086,3.118-7.546,3.351-11.667c2.928-51.95,4.112-103.998,3.548-156.027
			c-0.051-4.666-0.406-9.967-4.023-12.916c-2.957-2.411-7.136-2.414-10.949-2.3c-85.604,2.551-171.207,5.102-256.811,7.653
			c-24.489,0.73-85.811-9.773-100.853,14.395c-16.544,26.58,17.316,53.373,39.731,59.253
			C469.598,53.242,507.351,25.277,546.971,30.483z"/>
		<path style="clip-path:url(#SVGID_00000021107542650856030070000015402645295390762650_);fill:#002933;" d="M-2.457,117.722
			c-5.317-0.6-11.005-1.673-14.713-5.532c-3.06-3.184-4.208-7.7-5.166-12.011c-3.957-17.809-6.657-35.898-8.071-54.087
			c-2.038-26.204,0.121-56.079,20.118-73.136C5.424-40.445,27.75-42.021,48.395-42.532c53.078-1.315,138.603-1.29,104.339,77.442
			C127.79,92.226,57.688,124.508-2.457,117.722z"/>
		<path style="clip-path:url(#SVGID_00000021107542650856030070000015402645295390762650_);fill:#002933;" d="M255.705,398.458
			c14.99-21.518,37.994-41.032,66.594-43.954c21.89-2.236,44.045,5.83,60.566,18.597c16.521,12.767,27.98,29.845,36.753,47.54
			c10.264,20.705,19.773,45.076,43.636,53.627c12.846,4.603,27.308,3.44,41.126,2.285s28.344-2.132,41.038,2.784
			c12.693,4.916,22.478,17.83,17.677,29.23c-72.906,8.458-146.501,12.345-220.039,11.661c-37.133-0.345-74.253-1.855-111.262-4.532
			c-10.495-0.759-38.01,1.527-44.457-7.473c-7.919-11.054,8.167-18.29,15.512-25.725
			C227.027,458.023,236.707,425.732,255.705,398.458z"/>
		<path style="clip-path:url(#SVGID_00000021107542650856030070000015402645295390762650_);fill:#00536D;" d="M615.916,385.516
			c-3.807-35.034,17.75-71.32,50.338-84.733c16.023-6.595,35.684-9.254,45.047-23.834c8.353-13.007,4.739-29.984,6.724-45.314
			c3.235-24.991,23.738-46.779,48.486-51.525c4.708-0.903,10.025-1.105,13.821,1.821c4.551,3.507,5.176,10.018,5.405,15.759
			c4.192,104.815,2.985,209.845-3.614,314.536c-0.265,4.198-0.676,8.74-3.486,11.87c-3.294,3.669-8.757,4.202-13.68,4.464
			c-28.668,1.521-140.9,19.711-151.818-15.321c-5.92-18.994,17.008-36.04,18.189-55.673
			C632.819,432.755,618.558,409.829,615.916,385.516z"/>
		<path style="clip-path:url(#SVGID_00000021107542650856030070000015402645295390762650_);fill:#00536D;" d="M19.951,348.722
			c6.296,27.413,31.123,45.859,53.682,62.658c22.559,16.8,46.353,37.591,48.793,65.613c0.786,9.028-0.977,18.579-6.529,25.741
			c-9.441,12.18-26.629,14.449-41.983,15.766c-19.668,1.687-39.336,3.375-59.003,5.062c-12.378,1.062-26.081,1.755-35.865-5.9
			c-8.187-6.405-11.52-17.131-13.636-27.308c-6.034-29.015-5.824-58.918-5.589-88.554c0.335-42.23,0.642-84.461,1.005-126.691
			c0.213-24.77-6.391-72.996,28.554-77.153C69.395,188.437,12.391,315.81,19.951,348.722z"/>
		<path style="clip-path:url(#SVGID_00000021107542650856030070000015402645295390762650_);fill:#03ABED;" d="M77.318,336.303
			c-4.069,6.332-7.244,13.413-7.926,20.909s1.371,15.451,6.581,20.883c6.339,6.608,16.065,8.519,25.182,9.368
			c14.647,1.364,29.744,0.808,43.558-4.248c13.814-5.056,26.263-15.053,31.94-28.623c5.677-13.57,3.475-30.72-7.155-40.888
			C141.894,287.298,94.555,309.48,77.318,336.303z"/>
		<path style="clip-path:url(#SVGID_00000021107542650856030070000015402645295390762650_);fill:#03ABED;" d="M137.71,425.485
			c-4.122,12.043-0.229,26.953,10.458,33.867c6.944,4.492,15.96,5.263,23.861,2.82c7.901-2.442,14.69-7.881,19.554-14.569
			c7.257-9.979,10.218-23.965,4.338-34.812C181.395,385.994,145.539,402.611,137.71,425.485z"/>
		<path style="clip-path:url(#SVGID_00000021107542650856030070000015402645295390762650_);fill:#03ABED;" d="M648.957,186.774
			c-4.122,12.043-0.229,26.953,10.458,33.867c6.944,4.492,15.96,5.263,23.861,2.82c7.901-2.442,14.69-7.881,19.554-14.569
			c7.257-9.979,10.218-23.965,4.338-34.812C692.642,147.283,656.786,163.9,648.957,186.774z"/>
		<path style="clip-path:url(#SVGID_00000021107542650856030070000015402645295390762650_);fill:#03ABED;" d="M230.203,9.502
			c-22.199,2.406-45.443,16.697-52.038,34.493c-4.284,11.562-1.332,23.386,6.498,31.782s20.177,13.506,33.718,15.407
			c20.203,2.837,45.123-2.253,60.598-16.483C317.209,39.549,272.366,4.933,230.203,9.502z"/>
		<path style="clip-path:url(#SVGID_00000021107542650856030070000015402645295390762650_);fill:#002933;" d="M697.667,485.654
			c-3.74-3.285-24.166-19.963-26.138-8.546c-1.023,5.925-1.338,12.013-1.831,18.002c-0.294,3.568-0.318,8.115,3.501,9.893
			c3.756,1.749,7.916-1.618,10.917-3.481c4.783-2.969,9.281-6.361,13.551-10.025C699.286,490.109,699.253,487.047,697.667,485.654z"
			/>
		<path style="clip-path:url(#SVGID_00000021107542650856030070000015402645295390762650_);fill:#002933;" d="M743.952,490.356
			c-5.021,0.5-31.506,4.105-24.409,13.462c3.683,4.856,7.978,9.299,12.075,13.806c2.441,2.685,5.795,5.847,9.753,4.247
			c3.894-1.574,4.275-6.985,4.97-10.498c1.108-5.598,1.704-11.277,1.941-16.976C748.373,492.237,746.08,490.144,743.952,490.356z"/>
		<path style="clip-path:url(#SVGID_00000021107542650856030070000015402645295390762650_);fill:#002933;" d="M747.1,468.141
			c-0.916-6.451-6.995-40.426-18.684-30.764c-6.066,5.014-11.566,10.794-17.161,16.323c-3.333,3.294-7.231,7.791-4.953,12.811
			c2.241,4.939,9.243,5.139,13.812,5.846c7.282,1.127,14.641,1.59,22.005,1.589C744.911,473.946,747.488,470.875,747.1,468.141z"/>
		<path style="clip-path:url(#SVGID_00000021107542650856030070000015402645295390762650_);fill:#002933;" d="M688.365,390.097
			c-0.225-4.932-2.358-30.996-11.872-24.553c-4.937,3.344-9.503,7.307-14.122,11.074c-2.752,2.244-6.016,5.355-4.66,9.305
			c1.334,3.887,6.601,4.543,9.996,5.406c5.411,1.376,10.928,2.256,16.483,2.787C686.295,394.318,688.46,392.188,688.365,390.097z"/>
		<path style="clip-path:url(#SVGID_00000021107542650856030070000015402645295390762650_);fill:#002933;" d="M680.797,455.48
			c2.092-5.549,12.106-35.326-1.451-32.73c-7.035,1.348-13.955,3.554-20.839,5.52c-4.102,1.171-9.18,3.054-9.559,8.058
			c-0.372,4.922,5.128,8.146,8.466,10.71c5.318,4.086,10.99,7.675,16.868,10.897C676.51,459.155,679.91,457.832,680.797,455.48z"/>
		<path style="clip-path:url(#SVGID_00000021107542650856030070000015402645295390762650_);fill:#002933;" d="M708.757,418.105
			c3.709-2.302,22.901-15.198,13.823-19.759c-4.711-2.367-9.74-4.18-14.64-6.118c-2.92-1.155-6.729-2.332-9.192,0.42
			c-2.423,2.707-0.657,7.054,0.142,10.047c1.274,4.769,2.976,9.407,4.964,13.922C704.607,418.33,707.186,419.081,708.757,418.105z"
			/>
		<path style="clip-path:url(#SVGID_00000021107542650856030070000015402645295390762650_);fill:#002933;" d="M715.42,342.881
			c1.146,6.876,8.528,43.06,20.781,32.424c6.359-5.52,12.093-11.845,17.934-17.905c3.48-3.61,7.533-8.521,4.966-13.832
			c-2.525-5.224-10.019-5.258-14.925-5.896c-7.818-1.017-15.702-1.322-23.579-1.13C717.611,336.615,714.934,339.966,715.42,342.881z
			"/>
		<path style="clip-path:url(#SVGID_00000021107542650856030070000015402645295390762650_);fill:#002933;" d="M738.426,431.132
			c5.348,1.067,33.864,5.697,29.479-6.215c-2.276-6.182-5.313-12.129-8.127-18.082c-1.676-3.546-4.145-7.872-8.742-7.467
			c-4.522,0.399-6.623,5.872-8.45,9.284c-2.911,5.437-5.319,11.12-7.362,16.936C734.449,427.793,736.159,430.68,738.426,431.132z"/>
		<path style="clip-path:url(#SVGID_00000021107542650856030070000015402645295390762650_);fill:#007599;" d="M60.615,1.205
			c-1.659-5.664-6.772-9.26-12.334-10.08c-5.828-1.735-12.479-0.057-16.736,4.376c-5.248,5.466-5.409,14.545-0.849,20.447
			c2.478,3.207,5.779,5.121,9.349,5.787c1.699,0.844,3.578,1.297,5.402,1.192c6.022-0.347,10.58-4.113,12.804-9.208
			C60.76,10.091,61.917,5.646,60.615,1.205z"/>
		<path style="clip-path:url(#SVGID_00000021107542650856030070000015402645295390762650_);fill:#007599;" d="M23.926,38.817
			c-3.025-3.111-8.117-4.214-12.222-2.973c-5.02,1.517-8.31,6.03-8.348,11.253c-0.019,2.693,1.102,5.256,2.712,7.34
			c2.104,2.723,4.868,4.11,8.303,4.392c1.25,0.102,2.483-0.043,3.647-0.388c0.148-0.034,0.303-0.059,0.446-0.098
			c2.863-0.777,5.667-2.801,7.163-5.392C28.278,48.362,27.633,42.628,23.926,38.817z"/>
		<g style="clip-path:url(#SVGID_00000021107542650856030070000015402645295390762650_);">
			<path style="fill:#007599;" d="M57.234,62.799c0.017,0.002,0.028,0.003,0.044,0.005c0.017-0.011,0.034-0.021,0.051-0.032
				C57.296,62.78,57.264,62.788,57.234,62.799z"/>
			<path style="fill:#007599;" d="M70.552,68.292c1.669-4.312,1.712-9.282-0.599-13.697c-2.95-5.634-9.118-8.462-15.326-7.129
				c-1.163,0.25-2.302,0.682-3.377,1.251c-1.002,0.296-1.979,0.674-2.905,1.153c-6.062,3.135-9.092,9.799-7.856,16.43
				c1.073,5.753,5.82,11.049,11.575,12.459c2.183,0.535,4.288,0.565,6.259,0.201C64.032,78.267,68.861,73.792,70.552,68.292z"/>
		</g>
		<path style="clip-path:url(#SVGID_00000021107542650856030070000015402645295390762650_);fill:#007599;" d="M30.429,88.552
			c-1.661-4.15-5.73-7.102-11.053-3.67c-2.766,1.783-4.531,5.286-3.492,8.581c0.682,2.164,1.874,3.722,3.748,4.943
			c1.358,0.885,2.844,1.185,4.442,1.301C30.956,100.195,32.416,93.516,30.429,88.552z"/>
		<path style="clip-path:url(#SVGID_00000021107542650856030070000015402645295390762650_);fill:#007599;" d="M98.049,32.868
			c-0.228-1.28-0.669-2.594-1.328-3.719c-0.426-0.727-1.007-1.366-1.515-2.035c1.183,1.557-0.659-0.872-1.086-1.278
			c-4.917-4.664-14.277-4.474-17.741,1.909c-0.08,0.147-0.145,0.298-0.215,0.449c-0.739,0.691-1.36,1.454-1.734,2.163
			c-1.241,2.35-1.52,4.747-0.963,7.362c0.803,3.77,3.671,7.193,7.13,8.821c4.728,2.225,10.711,1.635,14.526-2.182
			C98.315,41.164,98.802,37.098,98.049,32.868z"/>
		<path style="clip-path:url(#SVGID_00000021107542650856030070000015402645295390762650_);fill:#007599;" d="M123.998-8.317
			c-5.254-6.8-15.784-7.654-21.898-1.463c-3.033,3.07-4.512,8.088-3.288,12.286c0.271,0.928,0.672,1.846,1.174,2.714
			c2.122,7.047,10.461,11.529,17.67,8.938C126.83,10.86,129.9-0.678,123.998-8.317z"/>
		<path style="clip-path:url(#SVGID_00000021107542650856030070000015402645295390762650_);fill:#007599;" d="M8.516-5.273
			C4.861-7.499,0.223-7.274-2.855-4.166c-1.094,1.105-1.907,2.617-2.25,4.198C-5.53,0.575-5.901,1.188-6.202,1.903
			c-0.61,1.447-0.918,3.034-0.842,4.615c0.189,3.95,2.056,7.193,5.412,9.316c3.199,2.023,7.932,1.336,10.54-1.36
			c2.634-2.724,4.521-6.278,4.61-10.138C13.603,0.596,11.771-3.292,8.516-5.273z"/>
		<path style="clip-path:url(#SVGID_00000021107542650856030070000015402645295390762650_);fill:#002933;" d="M8.895,432.805
			c13.072,7.239,24.353,17.682,32.577,30.158c3.435,5.211,6.375,10.855,7.676,16.96c3.627,17.027-7.605,35.67-24.125,41.164
			s-36.194-2.203-45.297-17.042c-3.949-6.437-6.028-13.829-7.72-21.188c-2.461-10.7-4.207-21.818-2.305-32.631
			C-26.097,426.331-10.861,421.865,8.895,432.805z"/>
		<path style="clip-path:url(#SVGID_00000021107542650856030070000015402645295390762650_);fill:#00536D;" d="M686.121,15.964
			c14.75,4.587,19.018,24.471,29.801,36.12c7.085,7.652,18.063,11.678,27.665,8.362c9.792-3.382,16.425-13.626,18.682-24.315
			c2.256-10.689,0.835-21.842-1.044-32.613c-0.801-4.592-1.791-9.406-4.723-12.882c-3.648-4.326-9.433-5.609-14.806-6.656
			c-30.121-5.87-77.324-19.593-102.057,7.662c-8.62,9.499-9.118,22.504,4.322,27.476C657.812,24.24,672.008,11.575,686.121,15.964z"
			/>
		<path style="clip-path:url(#SVGID_00000021107542650856030070000015402645295390762650_);fill:#00536D;" d="M291.393,431.202
			c11.3-6.299,26.661-8.884,36.356-0.318c16.414,14.504,3.368,47.212,21.087,60.089c4.48,3.255,10.854,5.182,12.298,10.528
			c1.156,4.279-1.802,8.807-5.692,10.931c-3.89,2.124-8.483,2.413-12.909,2.656c-16.803,0.922-110.312,12.648-113.366-5.376
			c-1.822-10.752,18.205-31.603,23.818-39.559C263.546,455.183,275.104,440.281,291.393,431.202z"/>
		<path style="clip-path:url(#SVGID_00000021107542650856030070000015402645295390762650_);fill:#002933;" d="M68.896,484.577
			c23.971-11.286,28.863,31.641,5.286,34.321c-4.336,0.493-9.006,0.923-12.804-1.225c-4.406-2.492-6.44-7.98-6.132-13.034
			C55.78,495.874,61.481,488.068,68.896,484.577z"/>
		<path style="clip-path:url(#SVGID_00000021107542650856030070000015402645295390762650_);fill:#00536D;" d="M570.117,16.316
			c6.993,5.053,16.992,6.927,24.251,2.264c3.044-1.955,5.35-4.855,7.429-7.816c3.395-4.834,6.45-10.888,4.408-16.43
			c-1.285-3.489-4.35-5.981-7.413-8.088c-4.701-3.235-9.725-5.998-14.974-8.236c-9.413-4.013-29.059-6.71-29.6,8.101
			C553.849-3.852,562.324,10.685,570.117,16.316z"/>
		<path style="clip-path:url(#SVGID_00000021107542650856030070000015402645295390762650_);fill:#FFFFFF;" d="M336.236,432.985
			c-1.509,0.909-2.713,2.023-3.986,3.229c-1.305,1.236-2.203,2.398-2.386,4.238c-0.104,1.037,0.92,1.736,1.816,1.816
			c1.683,0.15,2.992-0.679,4.296-1.62c1.353-0.977,2.636-1.888,3.753-3.136C341.841,435.151,339.153,431.227,336.236,432.985z"/>
		<path style="clip-path:url(#SVGID_00000021107542650856030070000015402645295390762650_);fill:#FFFFFF;" d="M361.431,430.576
			c-0.934-0.857-2.517-1.24-3.637-0.469c-1.182,0.814-2.008,1.777-2.77,2.984c-0.373,0.592-0.761,1.137-0.857,1.851
			c-0.064,0.475-0.091,0.952-0.126,1.43c-0.061,0.832,0.803,1.713,1.641,1.641c0.356-0.031,0.712-0.056,1.067-0.092
			c0.883-0.091,1.474-0.448,2.191-0.914c1.195-0.776,2.162-1.601,2.961-2.793C362.609,433.155,362.364,431.432,361.431,430.576z"/>
		<path style="clip-path:url(#SVGID_00000021107542650856030070000015402645295390762650_);fill:#FFFFFF;" d="M351.843,449.358
			c-0.556-0.799-1.35-1.122-2.302-0.937c-0.679,0.132-1.326,0.403-1.843,0.874c-0.148,0.135-0.279,0.28-0.418,0.424
			c-0.044,0.045-0.328,0.29-0.402,0.362c-0.01,0.008-0.015,0.011-0.027,0.02l-0.603,0.466c-0.175,0.147-0.374,0.309-0.541,0.465
			c-0.274,0.258-0.526,0.577-0.69,0.914c-0.018,0.036-0.025,0.055-0.034,0.077c-0.02,0.021-0.041,0.042-0.075,0.081
			c-1.095,1.26-0.599,2.952,0.931,3.526c1.766,0.662,3.684,0.204,4.972-1.181C352.081,453.085,353.05,451.092,351.843,449.358z"/>
		<path style="clip-path:url(#SVGID_00000021107542650856030070000015402645295390762650_);fill:#FFFFFF;" d="M340.061,464.283
			c-2.324-1.305-5.233,0.319-6.908,1.985c-0.887,0.881-1.072,2.342-0.441,3.42c0.674,1.153,1.938,1.505,3.187,1.297
			c2.461-0.411,5.031-1.967,5.362-4.61C341.362,465.568,340.731,464.659,340.061,464.283z"/>
		<path style="clip-path:url(#SVGID_00000021107542650856030070000015402645295390762650_);fill:#FFFFFF;" d="M358.045,463.072
			c-0.266-0.067-0.53-0.145-0.799-0.198c-0.917-0.18-1.563,0.003-2.399,0.369c-0.36,0.157-0.763,0.291-1.097,0.5
			c-0.692,0.432-1.094,1.108-1.519,1.777c-1.238,1.949,0.817,4.589,3.011,3.916c0.639-0.196,1.282-0.366,1.817-0.78
			c0.425-0.329,0.735-0.739,1.072-1.156c0.538-0.667,0.887-1.225,0.963-2.1c0.026-0.303,0.02-0.611,0.026-0.915
			C359.134,463.855,358.658,463.227,358.045,463.072z"/>
		<path style="clip-path:url(#SVGID_00000021107542650856030070000015402645295390762650_);fill:#FFFFFF;" d="M371.737,446.544
			c-0.758-0.951-1.818-1.228-2.993-1.021c-2.533,0.448-4.67,2.513-4.733,5.137c-0.022,0.933,0.65,1.651,1.479,1.943
			c2.54,0.896,5.176-0.73,6.469-2.897C372.542,448.731,372.436,447.421,371.737,446.544z"/>
		<path style="clip-path:url(#SVGID_00000021107542650856030070000015402645295390762650_);fill:#FFFFFF;" d="M376.245,466.992
			c-1.538-0.812-3.03-0.265-4.013,1.052c0.068-0.085,0.117-0.147,0.152-0.194c0.014-0.012,0.021-0.017,0.036-0.03
			c-0.01,0.005-0.018,0.012-0.027,0.018c0.074-0.099,0.049-0.083-0.074,0.048c-0.084,0.051-0.169,0.101-0.247,0.16
			c-0.289,0.171-0.543,0.381-0.763,0.629c-0.068,0.061-0.105,0.096-0.126,0.117c-0.163,0.115-0.33,0.225-0.48,0.357
			c-0.279,0.279-0.456,0.592-0.59,0.931c-0.566,0.741-0.452,1.827,0.179,2.503c0.074,0.08,0.102,0.106,0.108,0.109
			c0.424,0.521,0.832,0.928,1.534,1.122c0.718,0.198,1.61,0.087,2.319-0.08c1.34-0.316,2.486-1.498,3.044-2.729
			C377.93,469.611,377.744,467.784,376.245,466.992z"/>
		<path style="clip-path:url(#SVGID_00000021107542650856030070000015402645295390762650_);fill:#FFFFFF;" d="M354.871,480.487
			c-0.447-1.115-1.537-2.021-2.829-1.606c-0.615,0.197-1.096,0.396-1.599,0.846c-0.049,0.044-0.233,0.166-0.297,0.25
			c-0.159,0.113-0.321,0.224-0.467,0.355c-0.224,0.245-0.412,0.531-0.591,0.81c-0.217,0.339-0.069,0.12,0.078-0.077
			c-0.412,0.554-0.779,1.196-0.826,1.88c-0.28,0.638,0.03,1.604,0.653,1.886c0.049,0.022,0.099,0.041,0.148,0.063
			c0.77,0.625,1.709,0.922,2.71,0.621c0.685-0.206,1.453-0.525,1.969-1.041C354.793,483.5,355.389,481.782,354.871,480.487z"/>
		<path style="clip-path:url(#SVGID_00000021107542650856030070000015402645295390762650_);fill:#FFFFFF;" d="M328.028,458.642
			c-0.963-1.647-3.406-1.27-4.812-0.48c-0.72,0.404-1.557,0.881-2.158,1.447c-0.655,0.617-0.922,1.419-1.217,2.236
			c-0.333,0.92,0.381,2.31,1.391,2.451c0.87,0.121,1.701,0.283,2.567,0.023c0.744-0.224,1.482-0.712,2.144-1.118
			C327.35,462.338,329.05,460.388,328.028,458.642z"/>
		<path style="clip-path:url(#SVGID_00000021107542650856030070000015402645295390762650_);fill:#FFFFFF;" d="M326.666,481.372
			c-0.211-1.2-1.59-1.7-2.636-1.497c-0.772,0.15-1.26,0.498-1.896,0.928c0.314-0.212,0.055-0.071-0.123,0.048
			c-0.439,0.294-0.726,0.554-1.037,0.956c-0.067,0.086-0.111,0.145-0.145,0.192c-0.021,0.02-0.039,0.036-0.076,0.074
			c-0.248,0.254-0.494,0.504-0.687,0.807c-0.167,0.262-0.256,0.554-0.38,0.836c-0.005,0.011-0.006,0.013-0.01,0.022
			c-0.012,0.022-0.029,0.055-0.059,0.113c-0.361,0.71-0.126,1.38,0.483,1.844c1.235,0.94,2.709,0.886,4.1,0.3
			c0.912-0.385,1.513-1.049,2.052-1.869C326.827,483.253,326.839,482.356,326.666,481.372z"/>
		<g style="clip-path:url(#SVGID_00000021107542650856030070000015402645295390762650_);">
			<path style="fill:#FFFFFF;" d="M342.591,484.148c-0.429-1.169-1.706-1.544-2.673-0.771c0.109-0.03,0.205-0.037-0.019,0.013
				c-0.016,0.013-0.034,0.02-0.05,0.034c0.016-0.014,0.023-0.019,0.036-0.031c0,0-0.001,0-0.001,0
				c-0.052,0.039-0.099,0.07-0.1,0.052c-0.001-0.015,0.024-0.029,0.057-0.043c-0.1,0.021-0.202,0.04-0.3,0.068
				c-0.148,0.05-0.287,0.12-0.428,0.185c-0.076-0.004-0.275,0.077-0.338,0.097c-0.133,0.018-0.267,0.036-0.4,0.054
				c-0.31,0.077-0.668,0.241-0.933,0.416c-0.044,0.029-0.067,0.047-0.08,0.06c-0.848,0.347-1.465,1.022-1.591,1.964
				c-0.128,0.95,0.312,1.971,1.175,2.452c0.655,0.365,1.415,0.646,2.173,0.601c1.018-0.061,1.926-0.583,2.627-1.31
				C342.725,486.974,343.083,485.491,342.591,484.148z"/>
			<path style="fill:#FFFFFF;" d="M339.884,483.393c0.002-0.002,0.005-0.004,0.007-0.006c-0.002,0.002-0.004,0.003-0.006,0.005
				c0.006-0.001,0.008-0.002,0.014-0.003c0.006-0.005,0.013-0.008,0.019-0.013c-0.007,0.002-0.013,0.004-0.02,0.006
				c0.104-0.081,0.205-0.177-0.001,0c-0.02,0.006-0.038,0.012-0.055,0.02c0.01-0.002,0.02-0.005,0.031-0.007
				C339.877,483.395,339.879,483.394,339.884,483.393z"/>
		</g>
		<path style="clip-path:url(#SVGID_00000021107542650856030070000015402645295390762650_);fill:#FFFFFF;" d="M37.363,264.274
			c-0.022-1.084-1.029-1.841-2.077-1.582c-0.115,0.03-0.231,0.054-0.347,0.081c-1.269,0.031-2.278,0.807-3.251,1.676
			c-0.349,0.312-0.711,0.584-1.086,0.86c-0.659,0.485-1.131,1.124-1.689,1.718c-1.674,1.783-0.019,4.701,2.384,4.095
			c1.743-0.44,3.009-1.208,4.32-2.443c0.705-0.665,1.203-1.279,1.56-2.197C37.49,265.683,37.379,265.029,37.363,264.274z"/>
		<path style="clip-path:url(#SVGID_00000021107542650856030070000015402645295390762650_);fill:#FFFFFF;" d="M54.531,256.843
			c-1.399-0.404-2.465,0.165-3.632,0.835c-0.479,0.275-0.966,0.556-1.35,0.961c-0.459,0.484-0.653,1.047-0.885,1.651
			c-0.478,1.245,0.536,2.668,1.707,3.007c1.344,0.388,2.305,0.052,3.533-0.476c0.375-0.162,0.777-0.3,1.129-0.51
			c0.804-0.481,1.143-1.162,1.465-2.002C57.049,258.873,55.88,257.233,54.531,256.843z"/>
		<path style="clip-path:url(#SVGID_00000021107542650856030070000015402645295390762650_);fill:#FFFFFF;" d="M48.91,273.007
			c-0.365-0.566-0.835-0.984-1.458-1.247c-0.606-0.256-1.342-0.362-1.985-0.154c-0.797,0.258-1.332,0.725-1.822,1.401
			c-0.257,0.355-0.496,0.673-0.669,1.081c-0.257,0.61-0.277,1.211-0.264,1.852c0.021,0.997,0.524,1.92,1.393,2.428
			c0.847,0.496,1.995,0.53,2.839,0c0.635-0.398,1.259-0.792,1.654-1.466c0.263-0.449,0.431-1.051,0.619-1.546
			C49.472,274.687,49.291,273.598,48.91,273.007z"/>
		<path style="clip-path:url(#SVGID_00000021107542650856030070000015402645295390762650_);fill:#FFFFFF;" d="M31.347,287.986
			c-0.637-1.841-3.029-1.169-4.335-0.613c-0.924,0.393-1.626,0.89-2.445,1.456c-0.445,0.307-0.918,0.573-1.251,1.01
			c-0.174,0.19-0.291,0.413-0.352,0.669c0.012,0.594-0.045,0.691-0.173,0.289c-0.489,0.313-0.443,1.137,0.168,1.285
			c0.363,0.088,0.524,0.424,0.909,0.648c0.479,0.28,1.082,0.316,1.622,0.294c0.895-0.038,2.008-0.191,2.836-0.546
			C29.818,291.84,31.987,289.838,31.347,287.986z"/>
		<path style="clip-path:url(#SVGID_00000021107542650856030070000015402645295390762650_);fill:#FFFFFF;" d="M42.463,288.886
			c-1.965-0.037-3.736,0.272-5.233,1.668c-1.017,0.949-2.644,3.078-1.353,4.45c1.244,1.321,3.409,0.599,4.793-0.097
			c1.73-0.87,2.521-2.452,3.206-4.167C44.241,289.824,43.324,288.902,42.463,288.886z"/>
		<path style="clip-path:url(#SVGID_00000021107542650856030070000015402645295390762650_);fill:#FFFFFF;" d="M64.143,276.997
			c-1.025-0.262-1.803-0.052-2.724,0.337c-0.728,0.307-1.203,0.78-1.672,1.385c-0.308,0.396-0.604,0.775-0.74,1.27
			c-0.173,0.627-0.105,1.283,0.145,1.875c0.403,0.955,1.513,1.899,2.631,1.77c0.852-0.098,1.743-0.12,2.489-0.602
			c0.909-0.588,1.63-1.302,1.953-2.368C66.684,279.143,65.675,277.39,64.143,276.997z"/>
		<path style="clip-path:url(#SVGID_00000021107542650856030070000015402645295390762650_);fill:#FFFFFF;" d="M55.916,292.1
			c-0.445-0.76-1.224-1.157-2.086-1.196c-1.189-0.054-2.595,0.727-3.379,1.59c-0.734,0.808-1.024,2.105-0.397,3.077
			c0.613,0.951,1.747,1.471,2.867,1.167c1.088-0.296,2.497-1.111,2.994-2.199C56.285,293.73,56.385,292.902,55.916,292.1z"/>
		<g style="clip-path:url(#SVGID_00000021107542650856030070000015402645295390762650_);">
			<path style="fill:#FFFFFF;" d="M36.347,305.421c0.085-0.149-0.115,0.052-0.122,0.084c0.007-0.002,0.013-0.003,0.02-0.005
				C36.262,305.489,36.293,305.466,36.347,305.421z"/>
			<path style="fill:#FFFFFF;" d="M40.743,303.874c-0.576-0.718-1.763-0.565-2.362,0c-0.053,0.05-0.235,0.186-0.237,0.199
				c-0.041,0.023-0.083,0.045-0.123,0.071c-0.25,0.161-0.473,0.356-0.697,0.548c-0.035,0.025-0.083,0.06-0.143,0.1
				c-0.283,0.191-0.562,0.397-0.821,0.618c-0.006,0.005-0.008,0.006-0.014,0.011c-0.002,0.003-0.001,0.003-0.003,0.007
				c-0.014,0.023-0.03,0.042-0.046,0.059c-0.017,0.005-0.035,0.008-0.053,0.013c-0.014,0.009-0.022,0.011-0.02,0.005
				c-0.161,0.047-0.32,0.092-0.488,0.121c-1.289,0.227-2.049,1.708-1.89,2.894c0.17,1.268,1.27,2.309,2.591,2.287
				c1.73-0.028,3.681-0.75,4.581-2.319C41.916,306.921,41.875,305.286,40.743,303.874z"/>
		</g>
		<path style="clip-path:url(#SVGID_00000021107542650856030070000015402645295390762650_);fill:#FFFFFF;" d="M703.233,15.974
			c-0.52-0.888-1.832-1.573-2.854-1.161c-1.372,0.552-2.467,1.098-3.495,2.189c-0.447,0.474-0.945,0.989-1.286,1.542
			c-0.349,0.566-0.567,1.262-0.774,1.898c-0.606,1.857,1.654,3.501,3.274,2.517c1.905-1.158,3.244-2.352,4.74-3.922
			C703.614,18.224,703.808,16.958,703.233,15.974z"/>
		<path style="clip-path:url(#SVGID_00000021107542650856030070000015402645295390762650_);fill:#FFFFFF;" d="M710.264,30.049
			c-0.883-1.143-2.518-1.507-3.792-0.757c-1.365,0.803-2.776,1.732-3.483,3.22c-0.485,1.02-0.504,2.112,0.214,3.042
			c0.693,0.897,1.781,1.219,2.879,0.982c1.622-0.351,2.849-1.469,3.952-2.627C711.05,32.843,711.167,31.217,710.264,30.049z"/>
		<path style="clip-path:url(#SVGID_00000021107542650856030070000015402645295390762650_);fill:#FFFFFF;" d="M691.233,29.65
			c-0.265-0.42-0.683-0.65-1.178-0.676c-0.833-0.206-1.621-0.03-2.334,0.588c-0.932,0.808-1.788,1.656-2.627,2.56
			c-0.834,0.898-1.866,1.496-2.159,2.745c-0.143,0.607,0.11,1.106,0.592,1.456c1.312,0.952,3.045,0.284,4.394-0.307
			c1.592-0.698,2.886-1.925,3.611-3.514C691.952,31.586,691.991,30.419,691.233,29.65z"/>
		<path style="clip-path:url(#SVGID_00000021107542650856030070000015402645295390762650_);fill:#FFFFFF;" d="M677.846,23.419
			c-1.016-1.737-3.835-1.011-5.247-0.216c-0.696,0.392-1.455,1.001-2.06,1.528c-0.842,0.734-1.221,1.609-1.691,2.592
			c-0.585,1.221,0.085,3.158,1.72,2.998c0.851-0.083,1.766-0.09,2.58-0.355c0.908-0.295,1.753-0.952,2.526-1.503
			C677.018,27.506,678.853,25.14,677.846,23.419z"/>
		<path style="clip-path:url(#SVGID_00000021107542650856030070000015402645295390762650_);fill:#FFFFFF;" d="M667.287,40.988
			c-0.097-1.302-1.602-2.028-2.601-1.077c-0.325,0.309-0.676,0.472-1.065,0.683c-0.517,0.281-0.924,0.675-1.435,0.953
			c-0.915,0.499-1.843,1.11-2.532,1.955c-0.719,0.271-0.755,1.15-0.166,1.585c0.101,0.227,0.238,0.431,0.412,0.611
			c0.228,0.227,0.497,0.383,0.807,0.47c0.356,0.14,0.708,0.245,1.085,0.313c1.121,0.204,2.097-0.098,3.051-0.705
			C666.594,44.665,667.442,43.081,667.287,40.988z"/>
		<path style="clip-path:url(#SVGID_00000021107542650856030070000015402645295390762650_);fill:#FFFFFF;" d="M682.077,45.439
			c-1.705-1.039-3.834-0.06-5.458,0.719c-1.869,0.896-2.871,2.312-3.831,4.069c-0.241,0.441-0.063,1.209,0.525,1.291
			c2.069,0.288,3.785,0.366,5.725-0.61c1.754-0.883,3.601-2.005,3.823-4.103C682.918,46.26,682.517,45.706,682.077,45.439z"/>
		<path style="clip-path:url(#SVGID_00000021107542650856030070000015402645295390762650_);fill:#FFFFFF;" d="M704.393,44.792
			c-0.227-0.879-1.033-1.382-1.891-1.44c-1.673-0.113-2.992,0.808-4.075,1.987c-1.186,1.292-1.727,2.695-1.644,4.449
			c0.067,1.418,1.213,2.106,2.522,1.921c1.785-0.253,2.968-1.138,4.034-2.58C704.301,47.827,704.813,46.418,704.393,44.792z"/>
		<path style="clip-path:url(#SVGID_00000021107542650856030070000015402645295390762650_);fill:#FFFFFF;" d="M676.857,57.021
			c-3.602-0.99-8.497,2.931-8.687,6.532c-0.018,0.346,0.252,0.631,0.559,0.735c1.963,0.661,4.125-0.196,5.848-1.208
			c1.676-0.984,3.125-2.695,3.355-4.646C678.006,57.806,677.425,57.177,676.857,57.021z"/>
		<path style="clip-path:url(#SVGID_00000021107542650856030070000015402645295390762650_);fill:#FFFFFF;" d="M692.36,61.786
			c-0.258-0.864-1.09-1.274-1.946-1.105c-0.312,0.062-0.622,0.16-0.924,0.259c-0.018,0.006-0.023,0.009-0.036,0.013
			c-0.381,0.04-0.631-0.013-1.084,0.112c-0.28,0.077-0.541,0.213-0.809,0.326c-0.032,0.007-0.09,0.023-0.187,0.05
			c-0.599,0.167-1.106,0.472-1.661,0.73c-2.109,0.98-1.665,4.755,0.672,5.142c1.856,0.307,3.859-0.028,5.09-1.61
			C692.243,64.714,692.727,63.015,692.36,61.786z"/>
		<path style="clip-path:url(#SVGID_00000021107542650856030070000015402645295390762650_);fill:#FFFFFF;" d="M717.666,54.444
			c-0.751-0.972-2.161-1.187-3.284-0.975c-0.563,0.106-1.056,0.223-1.572,0.526c-0.727,0.426-1.15,1.031-1.547,1.735
			c-0.589,1.045-0.499,2.338,0.231,3.284c0.781,1.011,1.892,1.246,3.108,1.06c0.783-0.12,1.432-0.395,2.045-0.928
			c0.405-0.352,0.718-0.822,0.992-1.287C718.196,56.915,718.392,55.383,717.666,54.444z"/>
		<path style="clip-path:url(#SVGID_00000021107542650856030070000015402645295390762650_);fill:#FFFFFF;" d="M217.966,501.221
			c-1.169-5.206-2.751-10.313-4.723-15.27c-3.961-9.958-9.414-19.349-16.364-27.523c-6.767-7.958-15.06-14.737-24.553-19.176
			c-4.937-2.309-10.155-3.978-15.525-4.913c-6.837-1.191-13.795-1.296-20.716-1.139c-12.879,0.291-25.668,1.126-38.322-1.871
			c-10.748-2.546-21.201-7.348-29.212-15.082c-4.276-4.128-7.631-9.013-10.13-14.398c-2.717-5.855-4.481-12.094-6.291-18.272
			c-3.435-11.726-7.772-23.058-14.509-33.323c-6.488-9.886-14.927-18.614-25.197-24.581c-10.197-5.924-22.1-9.252-33.932-8.531
			c-2.854,0.174-5.675,0.672-8.444,1.378c-0.334,0.085-0.191,0.578,0.141,0.512c11.588-2.303,23.605-0.775,34.416,3.911
			c10.681,4.63,19.814,12.127,27.034,21.205c7.256,9.124,12.576,19.726,16.289,30.746c3.864,11.466,6.017,23.783,12.668,34.104
			c11.574,17.961,33.868,25.526,54.337,26.212c13.629,0.456,27.397-1.565,40.938,0.71c10.175,1.71,19.684,6.081,27.847,12.358
			c16.386,12.598,27.073,31.848,31.885,51.723c0.286,1.18,0.664,2.409,0.747,3.622c0.037,0.549,0.07,1.471-0.475,1.818
			c-0.351,0.224-1.611,0.005-1.181-0.579c0.334-0.454-0.425-0.891-0.756-0.442c-1.136,1.545,0.837,3.31,2.484,2.947
			C219.051,506.79,218.372,503.031,217.966,501.221z"/>
		<path style="clip-path:url(#SVGID_00000021107542650856030070000015402645295390762650_);fill:#FFFFFF;" d="M185.079-11.394
			c-0.128-1.25-0.301-2.504-0.533-3.739c-0.242-1.287-0.696-2.52-0.974-3.793c-0.14-0.638-1.119-0.368-0.979,0.27
			c0.291,1.328,0.316,2.731,0.492,4.079c0.184,1.411,0.32,2.829,0.431,4.247c0.204,2.602,0.247,5.216,0.134,7.823
			c-0.234,5.388-1.144,10.735-2.65,15.912c-2.981,10.252-8.303,19.846-15.539,27.707c-3.65,3.965-7.779,7.487-12.316,10.4
			c-5.463,3.508-11.466,6.055-17.549,8.269c-11.768,4.283-23.818,7.653-34.643,14.131c-18.971,11.352-33.799,29.433-41.283,50.228
			c-2.071,5.753-3.484,11.681-4.464,17.711c-1.157,7.123-1.828,14.318-3.103,21.422c-2.116,11.801-6.374,23.188-13.093,33.156
			c-6.696,9.933-15.797,18.202-26.721,23.227c-10.908,5.018-23.481,6.823-35.271,4.263c-2.839-0.617-5.615-1.471-8.306-2.565
			c-0.358-0.145-0.623,0.475-0.265,0.628c10.934,4.693,23.252,5.112,34.706,2.142c11.623-3.014,22.011-9.503,30.153-18.288
			c8.013-8.646,13.822-19.205,17.41-30.403c4.259-13.291,4.389-27.336,7.559-40.853c5.209-22.21,18.976-42.224,37.578-55.374
			c4.669-3.301,9.641-6.176,14.846-8.547c6.152-2.802,12.596-4.887,18.989-7.056c6.415-2.177,12.834-4.443,18.874-7.539
			c4.885-2.504,9.429-5.614,13.523-9.271C178.11,32.482,187.27,10.077,185.079-11.394z"/>
		<path style="clip-path:url(#SVGID_00000021107542650856030070000015402645295390762650_);fill:#FFFFFF;" d="M765.93,285.676
			c-2.919,5.994-6.706,11.454-11.791,15.804c-5.238,4.48-11.451,7.818-17.885,10.231c-15.432,5.788-32.173,6.085-48.298,8.557
			c-14.717,2.257-28.684,7.002-41.243,15.09c-11.708,7.54-21.869,17.49-29.518,29.137c-7.894,12.02-12.537,25.709-18.477,38.713
			c-6.044,13.232-13.744,25.479-26.187,33.532c-12.56,8.129-27.699,11.566-42.504,12.128c-17.135,0.651-34.418-2.256-51.434,0.818
			c-25.826,4.666-48.768,23.083-59.2,47.125c-1.241,2.859-2.168,5.698-2.843,8.741c-0.047,0.21,0.241,0.281,0.316,0.087
			c2.464-6.312,5.179-12.523,8.805-18.268c3.61-5.719,7.953-10.966,12.865-15.613c9.682-9.16,21.606-16.027,34.508-19.451
			c16.732-4.441,34.064-2,51.114-1.947c14.616,0.046,29.508-2.082,42.808-8.418c6.466-3.08,12.419-7.194,17.412-12.343
			c4.807-4.957,8.69-10.737,11.971-16.793c6.84-12.621,11.187-26.412,17.903-39.095c13.519-25.532,38.179-44.031,66.446-49.945
			c16.609-3.475,33.886-3.294,50.256-7.997c12.486-3.587,24.947-10.257,32.415-21.218c1.788-2.625,2.979-5.292,3.775-8.364
			C767.326,285.484,766.27,284.979,765.93,285.676z"/>
		<path style="clip-path:url(#SVGID_00000021107542650856030070000015402645295390762650_);fill:#FFFFFF;" d="M760.908,96.941
			c-1.122,0.642-2.333,1.174-3.417,1.874c-1.158,0.748-2.262,1.575-3.433,2.307c-2.274,1.422-4.637,2.699-7.069,3.829
			c-4.842,2.251-9.977,3.88-15.21,4.93c-10.554,2.118-21.626,1.785-32.013-1.052c-11.339-3.097-20.852-9.41-29.737-16.943
			c-4.781-4.054-9.485-8.227-14.628-11.825c-4.963-3.473-10.356-6.282-16.029-8.403c-11.855-4.434-24.461-5.441-36.941-3.609
			c-13.31,1.955-26.257,6.398-39.786,6.782c-13.658,0.388-26.967-3.532-39.687-8.122c-12.016-4.336-24.181-9.323-34.004-17.702
			c-16.471-14.049-25.561-36.211-23.977-57.773c0.2-2.717,0.566-5.43,1.056-8.11c0.086-0.468-0.615-0.675-0.723-0.199
			c-4.766,20.982,2.011,44.076,15.99,60.179c8.006,9.223,18.409,15.527,29.539,20.315c12.402,5.335,25.569,10.129,38.971,12.103
			c6.609,0.973,13.243,1.09,19.879,0.304c6.755-0.8,13.389-2.32,20.029-3.76c6.763-1.467,13.574-2.862,20.498-3.259
			c6.509-0.373,13.056,0.178,19.414,1.623c6.343,1.442,12.476,3.748,18.179,6.879c5.751,3.158,10.89,7.203,15.858,11.461
			c4.889,4.19,9.638,8.622,14.887,12.365c4.474,3.19,9.303,5.81,14.432,7.786c20.234,7.795,44.278,5.611,62.643-5.976
			c2.32-1.464,4.185-3.014,6.001-5.071C762.062,97.381,761.515,96.594,760.908,96.941z"/>
	</g>
</g>
</svg>
