<?xml version="1.0" encoding="utf-8"?>
<!-- Generator: Adobe Illustrator 27.5.0, SVG Export Plug-In . SVG Version: 6.00 Build 0)  -->
<svg version="1.1" xmlns="http://www.w3.org/2000/svg" xmlns:xlink="http://www.w3.org/1999/xlink" x="0px" y="0px"
	 viewBox="0 0 750 500" style="enable-background:new 0 0 750 500;" xml:space="preserve">
<g id="BACKGROUND">
	<rect style="fill:#24003A;" width="750" height="500"/>
</g>
<g id="OBJECTS">
	<g>
		<defs>
			<rect id="SVGID_1_" width="750" height="500"/>
		</defs>
		<clipPath id="SVGID_00000004546989181962910810000010614848598881868179_">
			<use xlink:href="#SVGID_1_"  style="overflow:visible;"/>
		</clipPath>
		
			<linearGradient id="SVGID_00000042711608588365993800000004751462631498065553_" gradientUnits="userSpaceOnUse" x1="413.2931" y1="154.9989" x2="751.5042" y2="154.9989">
			<stop  offset="0" style="stop-color:#A60082"/>
			<stop  offset="1" style="stop-color:#46005B;stop-opacity:0.5"/>
		</linearGradient>
		
			<path style="opacity:0.29;clip-path:url(#SVGID_00000004546989181962910810000010614848598881868179_);fill:url(#SVGID_00000042711608588365993800000004751462631498065553_);" d="
			M413.293-2.468c10.936,5.474,26.308,22.208,35.186,38.997c39.228,74.178,46.361,199.709,74.636,247.378
			c17.686,29.817,50.18,32.504,82.096,25.038c47.459-11.103,96.193-25.877,140.607-46.039c1.773-0.805,3.677-1.695,5.685-2.644
			V-2.468H413.293z"/>
		
			<linearGradient id="SVGID_00000127761588983185543370000004726427860084481686_" gradientUnits="userSpaceOnUse" x1="104.8405" y1="528.3615" x2="400.3987" y2="139.9417">
			<stop  offset="0" style="stop-color:#A60082"/>
			<stop  offset="1" style="stop-color:#46005B;stop-opacity:0.5"/>
		</linearGradient>
		
			<path style="opacity:0.29;clip-path:url(#SVGID_00000004546989181962910810000010614848598881868179_);fill:url(#SVGID_00000127761588983185543370000004726427860084481686_);" d="
			M447.238,475.609c-56.92,4.256-132.945,0-173.615-46.24c-39.873-45.333-51.991-106.62-67.184-161.795
			c-15.962-57.968-47.047-110.896-125.178-147.021C58.26,109.919,28.182,104.33,0,101.683V500h555.932
			C527.854,472.953,472.164,473.746,447.238,475.609z"/>
		
			<linearGradient id="SVGID_00000037682277834644748320000015015329766213670564_" gradientUnits="userSpaceOnUse" x1="59.5803" y1="492.5023" x2="345.1542" y2="252.8595">
			<stop  offset="0" style="stop-color:#A60082"/>
			<stop  offset="1" style="stop-color:#46005B;stop-opacity:0.5"/>
		</linearGradient>
		
			<path style="opacity:0.29;clip-path:url(#SVGID_00000004546989181962910810000010614848598881868179_);fill:url(#SVGID_00000037682277834644748320000015015329766213670564_);" d="
			M384.273,332.447c-36.422-40.793-109.48-44.782-213.144-38.348C74.201,300.116,29.948,272.962,0,247.688V500h401.962
			c-0.004-18.751,2.59-38.038,4.286-59.163C409.455,400.88,412.956,364.572,384.273,332.447z"/>
		
			<linearGradient id="SVGID_00000112618051452617916780000010557947074599849090_" gradientUnits="userSpaceOnUse" x1="517.327" y1="228.3732" x2="640.913" y2="96.0169">
			<stop  offset="0" style="stop-color:#A60082"/>
			<stop  offset="1" style="stop-color:#46005B;stop-opacity:0.5"/>
		</linearGradient>
		
			<path style="opacity:0.29;clip-path:url(#SVGID_00000004546989181962910810000010614848598881868179_);fill:url(#SVGID_00000112618051452617916780000010557947074599849090_);" d="
			M340.432-2.468c-0.105,20.274,4.355,45.164,19.636,68.974c35.075,54.651,98.335,59.91,161.182,68.341
			c54.371,7.294,128.676,1.526,147.335,66.867c11.154,39.059,18.028,82.952,29.2,125.615c10.13,38.684,30.227,60.776,53.719,70.537
			V-2.468H340.432z"/>
		
			<linearGradient id="SVGID_00000124151144342806583560000008803947845719087532_" gradientUnits="userSpaceOnUse" x1="538.557" y1="183.5706" x2="705.9954" y2="17.7267">
			<stop  offset="0" style="stop-color:#A60082"/>
			<stop  offset="1" style="stop-color:#46005B;stop-opacity:0.5"/>
		</linearGradient>
		
			<path style="opacity:0.29;clip-path:url(#SVGID_00000004546989181962910810000010614848598881868179_);fill:url(#SVGID_00000124151144342806583560000008803947845719087532_);" d="
			M393.241-2.468c0.821,11.296,2.924,22.053,6.135,31.126c15.14,42.775,60.916,64.572,102.099,75.383
			c57.496,15.093,125.866,21.025,168.276,67.361c25.337,27.682,40.887,62.511,58.507,95.14
			c6.024,11.155,13.879,24.457,23.246,36.079V-2.468H393.241z"/>
		
			<linearGradient id="SVGID_00000098187044211498574420000011940868022470307991_" gradientUnits="userSpaceOnUse" x1="353.0295" y1="341.9405" x2="743.435" y2="-2.3839">
			<stop  offset="0" style="stop-color:#FF1E61"/>
			<stop  offset="1" style="stop-color:#FF1E61;stop-opacity:0"/>
		</linearGradient>
		
			<path style="clip-path:url(#SVGID_00000004546989181962910810000010614848598881868179_);fill:url(#SVGID_00000098187044211498574420000011940868022470307991_);" d="
			M437.759-2.468c18.9,7.277,40.081,21.115,55.241,41.112c27.137,35.798,32.324,70.962,60.049,141.461
			c20.209,51.388,39.356,89.029,107.148,97.843c35.471,4.611,65.986-4.054,91.308-17.77V-2.468H437.759z"/>
		
			<linearGradient id="SVGID_00000136394176005232032520000003324139292610740130_" gradientUnits="userSpaceOnUse" x1="519.1395" y1="191.1279" x2="746.3609" y2="-9.2737">
			<stop  offset="0" style="stop-color:#FF1E61"/>
			<stop  offset="1" style="stop-color:#FF1E61;stop-opacity:0"/>
		</linearGradient>
		
			<path style="clip-path:url(#SVGID_00000004546989181962910810000010614848598881868179_);fill:none;stroke:url(#SVGID_00000136394176005232032520000003324139292610740130_);stroke-width:0.9148;stroke-miterlimit:10;" d="
			M415.973-3.527c20.073,7.656,44.877,23.272,60.978,44.31c28.822,37.659,34.331,74.651,63.777,148.814
			c21.463,54.059,41.799,93.657,113.8,102.929c37.674,4.851,70.083-4.264,96.977-18.693V-2.468L415.973-3.527z"/>
		
			<linearGradient id="SVGID_00000168089210522985512410000017115721637084984247_" gradientUnits="userSpaceOnUse" x1="505.7524" y1="203.1871" x2="755.2393" y2="-16.8519">
			<stop  offset="0" style="stop-color:#FF1E61"/>
			<stop  offset="1" style="stop-color:#FF1E61;stop-opacity:0"/>
		</linearGradient>
		
			<path style="clip-path:url(#SVGID_00000004546989181962910810000010614848598881868179_);fill:none;stroke:url(#SVGID_00000168089210522985512410000017115721637084984247_);stroke-width:0.9361;stroke-miterlimit:10;" d="
			M409.653-3.678c20.541,7.834,44.424,23.94,60.9,45.468c29.494,38.537,35.131,76.39,65.263,152.282
			c21.964,55.319,33.705,115.797,107.635,123.06c48.172,4.732,96.704-28.235,112.233-40.94V-15.332L409.653-3.678z"/>
		
			<path style="clip-path:url(#SVGID_00000004546989181962910810000010614848598881868179_);fill:none;stroke:#FFFFFF;stroke-width:0.9425;stroke-miterlimit:10;" d="
			M402.531-42.942c130.118,20.968,148.433,90.304,174.987,164.843c19.736,55.401,31.208,100.611,71.009,118.349
			c39.801,17.738,95.401,0.731,127.648-43.113"/>
		
			<linearGradient id="SVGID_00000136390881968266668750000009232060389038158229_" gradientUnits="userSpaceOnUse" x1="247.368" y1="279.9884" x2="-26.9967" y2="508.6259">
			<stop  offset="0" style="stop-color:#FF1E61"/>
			<stop  offset="1" style="stop-color:#FF1E61;stop-opacity:0"/>
		</linearGradient>
		
			<path style="clip-path:url(#SVGID_00000004546989181962910810000010614848598881868179_);fill:url(#SVGID_00000136390881968266668750000009232060389038158229_);" d="
			M346.493,450.788c-1.781-32.365-20.636-61.778-59.1-76.862c-42.36-16.612-90.283-6.666-133.322-10.57
			c-35.644-3.232-58.329-19.304-73.014-52.258C64.075,272.987,45.006,204.609,0,190.516V500h338.089
			C344.275,484.945,347.464,468.421,346.493,450.788z"/>
		
			<linearGradient id="SVGID_00000048490759823851989520000015003815882226616505_" gradientUnits="userSpaceOnUse" x1="256.7234" y1="270.7561" x2="-16.8609" y2="498.7433">
			<stop  offset="0" style="stop-color:#FF1E61"/>
			<stop  offset="1" style="stop-color:#FF1E61;stop-opacity:0"/>
		</linearGradient>
		
			<path style="clip-path:url(#SVGID_00000004546989181962910810000010614848598881868179_);fill:none;stroke:url(#SVGID_00000048490759823851989520000015003815882226616505_);stroke-miterlimit:10;" d="
			M382.531,452.082c-2.011-36.529-23.291-69.727-66.704-86.751c-47.81-18.75-101.899-7.524-150.475-11.93
			c-40.23-3.648-65.834-21.788-82.408-58.981C63.777,251.406,42.254,174.23-8.542,158.323v349.303h381.588
			C380.027,490.634,383.627,471.983,382.531,452.082z"/>
		
			<linearGradient id="SVGID_00000144319865630094759260000018320285452494793103_" gradientUnits="userSpaceOnUse" x1="289.5569" y1="253.2449" x2="-12.0341" y2="504.571">
			<stop  offset="0" style="stop-color:#FF1E61"/>
			<stop  offset="1" style="stop-color:#FF1E61;stop-opacity:0"/>
		</linearGradient>
		
			<path style="clip-path:url(#SVGID_00000004546989181962910810000010614848598881868179_);fill:none;stroke:url(#SVGID_00000144319865630094759260000018320285452494793103_);stroke-width:1.0323;stroke-miterlimit:10;" d="
			M420.035,450.288c-2.076-37.709-17.973-93.292-91.602-101.473c-52.691-5.854-107.315,4.152-157.461-0.396
			c-41.53-3.766-67.961-22.492-85.07-60.887C66.114,243.126,43.896,163.456-8.542,147.036v360.59h418.785
			C417.45,490.085,421.166,470.832,420.035,450.288z"/>
		
			<linearGradient id="SVGID_00000091697084115415221130000002214556839272228773_" gradientUnits="userSpaceOnUse" x1="511.2145" y1="155.9408" x2="734.1484" y2="-29.1859">
			<stop  offset="0" style="stop-color:#FF1E61"/>
			<stop  offset="1" style="stop-color:#FF1E61;stop-opacity:0"/>
		</linearGradient>
		
			<path style="clip-path:url(#SVGID_00000004546989181962910810000010614848598881868179_);fill:url(#SVGID_00000091697084115415221130000002214556839272228773_);" d="
			M531.705,54.7c35.072,9.765,55.581,12.365,72.417,34.166c18.774,24.31,21.091,59.362,34.931,86.34
			c24.674,48.097,81.851,49.599,112.452,3.194V-2.468H428.726C446.505,34.312,494.871,44.444,531.705,54.7z"/>
		
			<linearGradient id="SVGID_00000075883061461399919620000017307227534907296942_" gradientUnits="userSpaceOnUse" x1="173.9809" y1="326.66" x2="6.0376" y2="498.7603">
			<stop  offset="0" style="stop-color:#FF1E61"/>
			<stop  offset="1" style="stop-color:#FF1E61;stop-opacity:0"/>
		</linearGradient>
		
			<path style="clip-path:url(#SVGID_00000004546989181962910810000010614848598881868179_);fill:url(#SVGID_00000075883061461399919620000017307227534907296942_);" d="
			M168.47,426.994c-25.742-14.101-53.765-19.053-82.379-23.129c-34.162-4.867-55.306-13.393-60.317-46.614
			c-2.09-13.856-5.95-50.578-18.843-69.42c-2.006-2.932-4.337-5.636-6.932-8.094V500h224.598
			C218.815,469.524,198.017,443.179,168.47,426.994z"/>
		
			<linearGradient id="SVGID_00000007407797886247256950000003291825093704853679_" gradientUnits="userSpaceOnUse" x1="553.0847" y1="154.6208" x2="743.4263" y2="-14.8615">
			<stop  offset="0" style="stop-color:#FF1E61"/>
			<stop  offset="1" style="stop-color:#FF1E61;stop-opacity:0"/>
		</linearGradient>
		
			<path style="clip-path:url(#SVGID_00000004546989181962910810000010614848598881868179_);fill:url(#SVGID_00000007407797886247256950000003291825093704853679_);" d="
			M576.674-2.468c29.121,9.589,41.294,32.905,50.601,63.252c9.197,29.99,21.993,59.181,44.11,67.773
			c31.59,12.272,61.179,1.95,80.12-14.527V-2.468H576.674z"/>
		
			<linearGradient id="SVGID_00000092427959665303941920000000992938970062292912_" gradientUnits="userSpaceOnUse" x1="642.9849" y1="76.8976" x2="743.3702" y2="-5.2358">
			<stop  offset="0" style="stop-color:#FF1E61"/>
			<stop  offset="1" style="stop-color:#FF1E61;stop-opacity:0"/>
		</linearGradient>
		
			<path style="clip-path:url(#SVGID_00000004546989181962910810000010614848598881868179_);fill:url(#SVGID_00000092427959665303941920000000992938970062292912_);" d="
			M751.504,67.543V-2.468H642.9C648.956,51.227,711.314,79.693,751.504,67.543z"/>
		
			<linearGradient id="SVGID_00000168085376014864360580000016414232597690226566_" gradientUnits="userSpaceOnUse" x1="85.0314" y1="448.1552" x2="-9.4536" y2="537.3492">
			<stop  offset="0" style="stop-color:#FF1E61"/>
			<stop  offset="1" style="stop-color:#FF1E61;stop-opacity:0"/>
		</linearGradient>
		
			<path style="clip-path:url(#SVGID_00000004546989181962910810000010614848598881868179_);fill:url(#SVGID_00000168085376014864360580000016414232597690226566_);" d="
			M96.847,476.042C58.267,468.653,21.656,454.596,0,422.168V500h142.671C136.215,485.648,117.318,479.961,96.847,476.042z"/>
		
			<path style="clip-path:url(#SVGID_00000004546989181962910810000010614848598881868179_);fill:none;stroke:#FFFFFF;stroke-width:0.9425;stroke-miterlimit:10;" d="
			M651.476-18.488c4.325,43.788,59.465,85.414,120.012,66.493"/>
		
			<path style="clip-path:url(#SVGID_00000004546989181962910810000010614848598881868179_);fill:none;stroke:#FFFFFF;stroke-width:0.9425;stroke-miterlimit:10;" d="
			M577.955-34.165c38.923,14.596,50.816,48.113,68.656,92.442c28.022,69.63,77.846,61.087,122.174,23.786"/>
		
			<path style="clip-path:url(#SVGID_00000004546989181962910810000010614848598881868179_);fill:none;stroke:#FFFFFF;stroke-miterlimit:10;" d="
			M-30.194,227.269c47.667-6.672,70.403,38.28,78.136,98.924c7.93,62.189,34.163,57.813,95.74,64.835
			c72.079,8.22,153.011,25.923,137.204,127.087"/>
		
			<path style="clip-path:url(#SVGID_00000004546989181962910810000010614848598881868179_);fill:none;stroke:#FFFFFF;stroke-miterlimit:10;" d="
			M-23.927,336.635c11.112,57.27,29.063,94.88,103.428,101.719c74.366,6.838,106.847,38.465,110.267,82.059"/>
		<g style="clip-path:url(#SVGID_00000004546989181962910810000010614848598881868179_);">
			
				<linearGradient id="SVGID_00000096776130094455447780000004367045056250220977_" gradientUnits="userSpaceOnUse" x1="3140.0603" y1="1185.3412" x2="3043.6443" y2="1058.5238" gradientTransform="matrix(0.8424 -0.5388 0.5388 0.8424 -2562.1277 1147.0522)">
				<stop  offset="0" style="stop-color:#FFFF60;stop-opacity:0.9567"/>
				<stop  offset="1" style="stop-color:#FFD060;stop-opacity:0"/>
			</linearGradient>
			<polygon style="fill:url(#SVGID_00000096776130094455447780000004367045056250220977_);" points="792.489,344.711 
				522.24,517.568 520.505,514.855 790.754,341.999 			"/>
			
				<linearGradient id="SVGID_00000150802604661073911200000015561629139979070633_" gradientUnits="userSpaceOnUse" x1="3140.0605" y1="1198.1351" x2="3043.6445" y2="1071.3179" gradientTransform="matrix(0.8424 -0.5388 0.5388 0.8424 -2562.1277 1147.0522)">
				<stop  offset="0" style="stop-color:#FFFF60;stop-opacity:0.9567"/>
				<stop  offset="1" style="stop-color:#FFD060;stop-opacity:0"/>
			</linearGradient>
			<polygon style="fill:url(#SVGID_00000150802604661073911200000015561629139979070633_);" points="799.383,355.489 
				529.134,528.345 527.399,525.633 797.648,352.776 			"/>
			
				<linearGradient id="SVGID_00000039815570042011093490000002606768181852715430_" gradientUnits="userSpaceOnUse" x1="3140.0608" y1="1210.9292" x2="3043.6448" y2="1084.1118" gradientTransform="matrix(0.8424 -0.5388 0.5388 0.8424 -2562.1277 1147.0522)">
				<stop  offset="0" style="stop-color:#FFFF60;stop-opacity:0.9567"/>
				<stop  offset="1" style="stop-color:#FFD060;stop-opacity:0"/>
			</linearGradient>
			<polygon style="fill:url(#SVGID_00000039815570042011093490000002606768181852715430_);" points="806.276,366.266 
				536.027,539.123 534.292,536.411 804.542,363.554 			"/>
			
				<linearGradient id="SVGID_00000090254991082750797950000011750554351659657882_" gradientUnits="userSpaceOnUse" x1="3140.0608" y1="1223.7233" x2="3043.645" y2="1096.9059" gradientTransform="matrix(0.8424 -0.5388 0.5388 0.8424 -2562.1277 1147.0522)">
				<stop  offset="0" style="stop-color:#FFFF60;stop-opacity:0.9567"/>
				<stop  offset="1" style="stop-color:#FFD060;stop-opacity:0"/>
			</linearGradient>
			<polygon style="fill:url(#SVGID_00000090254991082750797950000011750554351659657882_);" points="813.17,377.044 542.921,549.9 
				541.186,547.188 811.435,374.332 			"/>
			
				<linearGradient id="SVGID_00000075152835684903484240000003819593054299845785_" gradientUnits="userSpaceOnUse" x1="3140.061" y1="1236.5172" x2="3043.6453" y2="1109.7" gradientTransform="matrix(0.8424 -0.5388 0.5388 0.8424 -2562.1277 1147.0522)">
				<stop  offset="0" style="stop-color:#FFFF60;stop-opacity:0.9567"/>
				<stop  offset="1" style="stop-color:#FFD060;stop-opacity:0"/>
			</linearGradient>
			<polygon style="fill:url(#SVGID_00000075152835684903484240000003819593054299845785_);" points="820.063,387.821 
				549.814,560.678 548.079,557.966 818.329,385.109 			"/>
			
				<linearGradient id="SVGID_00000124123890576125580780000003229515230830255782_" gradientUnits="userSpaceOnUse" x1="3140.0613" y1="1249.3113" x2="3043.6453" y2="1122.4939" gradientTransform="matrix(0.8424 -0.5388 0.5388 0.8424 -2562.1277 1147.0522)">
				<stop  offset="0" style="stop-color:#FFFF60;stop-opacity:0.9567"/>
				<stop  offset="1" style="stop-color:#FFD060;stop-opacity:0"/>
			</linearGradient>
			<polygon style="fill:url(#SVGID_00000124123890576125580780000003229515230830255782_);" points="826.957,398.599 
				556.708,571.456 554.973,568.743 825.222,395.887 			"/>
		</g>
		<g style="clip-path:url(#SVGID_00000004546989181962910810000010614848598881868179_);">
			
				<linearGradient id="SVGID_00000039124529623112988110000012792354235386834616_" gradientUnits="userSpaceOnUse" x1="-2206.3135" y1="7977.0679" x2="-2302.7361" y2="7850.2417" gradientTransform="matrix(-0.8102 0.5861 -0.5861 -0.8102 2915.5728 7784.2627)">
				<stop  offset="0" style="stop-color:#FFFF60;stop-opacity:0.9567"/>
				<stop  offset="1" style="stop-color:#FFD060;stop-opacity:0"/>
			</linearGradient>
			<polygon style="fill:url(#SVGID_00000039124529623112988110000012792354235386834616_);" points="-36.649,140.994 
				223.28,-47.024 225.167,-44.415 -34.762,143.603 			"/>
			
				<linearGradient id="SVGID_00000085935881694871805990000017468796705703879811_" gradientUnits="userSpaceOnUse" x1="-2206.314" y1="7989.8618" x2="-2302.7366" y2="7863.0356" gradientTransform="matrix(-0.8102 0.5861 -0.5861 -0.8102 2915.5728 7784.2627)">
				<stop  offset="0" style="stop-color:#FFFF60;stop-opacity:0.9567"/>
				<stop  offset="1" style="stop-color:#FFD060;stop-opacity:0"/>
			</linearGradient>
			<polygon style="fill:url(#SVGID_00000085935881694871805990000017468796705703879811_);" points="-44.147,130.628 
				215.782,-57.39 217.669,-54.781 -42.261,133.237 			"/>
			
				<linearGradient id="SVGID_00000149343051225696947200000007482052144053659320_" gradientUnits="userSpaceOnUse" x1="-2206.3145" y1="8002.6558" x2="-2302.7371" y2="7875.8296" gradientTransform="matrix(-0.8102 0.5861 -0.5861 -0.8102 2915.5728 7784.2627)">
				<stop  offset="0" style="stop-color:#FFFF60;stop-opacity:0.9567"/>
				<stop  offset="1" style="stop-color:#FFD060;stop-opacity:0"/>
			</linearGradient>
			<polygon style="fill:url(#SVGID_00000149343051225696947200000007482052144053659320_);" points="-51.646,120.262 
				208.284,-67.756 210.171,-65.147 -49.759,122.871 			"/>
			
				<linearGradient id="SVGID_00000160912039789944623320000016210303757305770682_" gradientUnits="userSpaceOnUse" x1="-2206.3149" y1="8015.4502" x2="-2302.7375" y2="7888.624" gradientTransform="matrix(-0.8102 0.5861 -0.5861 -0.8102 2915.5728 7784.2627)">
				<stop  offset="0" style="stop-color:#FFFF60;stop-opacity:0.9567"/>
				<stop  offset="1" style="stop-color:#FFD060;stop-opacity:0"/>
			</linearGradient>
			<polygon style="fill:url(#SVGID_00000160912039789944623320000016210303757305770682_);" points="-59.144,109.896 
				200.786,-78.122 202.673,-75.513 -57.257,112.505 			"/>
			
				<linearGradient id="SVGID_00000104671731527263346220000007679488353375693467_" gradientUnits="userSpaceOnUse" x1="-2206.3154" y1="8028.2441" x2="-2302.738" y2="7901.418" gradientTransform="matrix(-0.8102 0.5861 -0.5861 -0.8102 2915.5728 7784.2627)">
				<stop  offset="0" style="stop-color:#FFFF60;stop-opacity:0.9567"/>
				<stop  offset="1" style="stop-color:#FFD060;stop-opacity:0"/>
			</linearGradient>
			<polygon style="fill:url(#SVGID_00000104671731527263346220000007679488353375693467_);" points="-66.642,99.53 193.287,-88.488 
				195.174,-85.88 -64.755,102.139 			"/>
			
				<linearGradient id="SVGID_00000157996957745066640080000001847953749903874737_" gradientUnits="userSpaceOnUse" x1="-2206.3159" y1="8041.0381" x2="-2302.7385" y2="7914.2119" gradientTransform="matrix(-0.8102 0.5861 -0.5861 -0.8102 2915.5728 7784.2627)">
				<stop  offset="0" style="stop-color:#FFFF60;stop-opacity:0.9567"/>
				<stop  offset="1" style="stop-color:#FFD060;stop-opacity:0"/>
			</linearGradient>
			<polygon style="fill:url(#SVGID_00000157996957745066640080000001847953749903874737_);" points="-74.14,89.164 185.789,-98.854 
				187.676,-96.245 -72.253,91.773 			"/>
		</g>
		<g style="clip-path:url(#SVGID_00000004546989181962910810000010614848598881868179_);">
			<ellipse style="fill:#FFFFFF;" cx="655.721" cy="374.221" rx="2.397" ry="2.299"/>
			<path style="fill:#FFFFFF;" d="M474.742,454.679c0,2.222-1.878,4.023-4.195,4.023c-2.317,0-4.195-1.801-4.195-4.023
				c0-2.222,1.878-4.023,4.195-4.023C472.864,450.656,474.742,452.457,474.742,454.679z"/>
			<path style="fill:#FFFFFF;" d="M666.614,171.357c0,1.173-0.951,2.124-2.124,2.124c-1.173,0-2.124-0.951-2.124-2.124
				c0-1.173,0.951-2.124,2.124-2.124C665.663,169.232,666.614,170.184,666.614,171.357z"/>
			<path style="fill:#FFFFFF;" d="M554.953,127.36c0,2.011-1.63,3.641-3.641,3.641c-2.011,0-3.641-1.63-3.641-3.641
				c0-2.011,1.63-3.641,3.641-3.641C553.323,123.718,554.953,125.349,554.953,127.36z"/>
			<path style="fill:#FFFFFF;" d="M460.284,119.774c0,0.838-0.679,1.517-1.517,1.517s-1.517-0.679-1.517-1.517
				c0-0.838,0.679-1.517,1.517-1.517S460.284,118.936,460.284,119.774z"/>
			<path style="fill:#FFFFFF;" d="M167.173,328.835c0,1.676-1.359,3.034-3.034,3.034c-1.676,0-3.034-1.358-3.034-3.034
				c0-1.676,1.358-3.034,3.034-3.034C165.814,325.801,167.173,327.159,167.173,328.835z"/>
			<path style="fill:#FFFFFF;" d="M131.369,307.595c0,2.011-1.63,3.641-3.641,3.641c-2.011,0-3.641-1.63-3.641-3.641
				c0-2.011,1.63-3.641,3.641-3.641C129.738,303.954,131.369,305.584,131.369,307.595z"/>
			<path style="fill:#FFFFFF;" d="M284.296,436.248c0,1.006-0.815,1.821-1.821,1.821c-1.006,0-1.821-0.815-1.821-1.821
				c0-1.005,0.815-1.82,1.821-1.82C283.481,434.428,284.296,435.243,284.296,436.248z"/>
			<circle style="fill:#FFFFFF;" cx="193.268" cy="460.522" r="1.214"/>
			<path style="fill:#FFFFFF;" d="M46.409,133.428c0,1.676-1.358,3.034-3.034,3.034c-1.676,0-3.034-1.359-3.034-3.034
				s1.359-3.034,3.034-3.034C45.051,130.394,46.409,131.752,46.409,133.428z"/>
			<path style="fill:#FFFFFF;" d="M27.597,114.009c0,0.67-0.543,1.214-1.214,1.214c-0.67,0-1.214-0.543-1.214-1.214
				c0-0.67,0.543-1.214,1.214-1.214C27.053,112.795,27.597,113.339,27.597,114.009z"/>
			<path style="fill:#FFFFFF;" d="M168.994,40.883c0,1.508-1.223,2.731-2.731,2.731c-1.508,0-2.731-1.223-2.731-2.731
				s1.223-2.731,2.731-2.731C167.771,38.152,168.994,39.375,168.994,40.883z"/>
			<path style="fill:#FFFFFF;" d="M57.939,471.142c0,1.508-1.223,2.731-2.731,2.731c-1.508,0-2.731-1.223-2.731-2.731
				s1.223-2.731,2.731-2.731C56.717,468.412,57.939,469.634,57.939,471.142z"/>
			<path style="fill:#FFFFFF;" d="M496.088,199.575c0,1.006-0.951,1.821-2.124,1.821c-1.173,0-2.124-0.815-2.124-1.821
				c0-1.005,0.951-1.82,2.124-1.82C495.137,197.755,496.088,198.57,496.088,199.575z"/>
			<path style="fill:#FFFFFF;" d="M600.467,46.041c0,1.341-1.087,2.427-2.427,2.427c-1.341,0-2.427-1.087-2.427-2.427
				c0-1.341,1.087-2.427,2.427-2.427C599.38,43.614,600.467,44.701,600.467,46.041z"/>
			<path style="fill:#FFFFFF;" d="M682.999,156.792c0,2.178-1.766,3.945-3.945,3.945c-2.179,0-3.945-1.766-3.945-3.945
				c0-2.179,1.766-3.945,3.945-3.945C681.233,152.848,682.999,154.613,682.999,156.792z"/>
			<circle style="fill:#FFFFFF;" cx="672.379" cy="364.336" r="4.551"/>
			<path style="fill:#FFFFFF;" d="M489.412,466.591c0,1.005-0.815,1.821-1.82,1.821c-1.006,0-1.821-0.815-1.821-1.821
				c0-1.005,0.815-1.82,1.821-1.82C488.598,464.771,489.412,465.586,489.412,466.591z"/>
			<path style="fill:#FFFFFF;" d="M164.746,66.674c0,2.681-2.174,4.855-4.855,4.855c-2.681,0-4.855-2.174-4.855-4.855
				c0-2.681,2.174-4.855,4.855-4.855C162.572,61.819,164.746,63.993,164.746,66.674z"/>
		</g>
	</g>
</g>
</svg>
