<svg xmlns="http://www.w3.org/2000/svg" xmlns:xlink="http://www.w3.org/1999/xlink" version="1.1" width="100" height="100" viewBox="0 0 1000 1000" xml:space="preserve" style="height: auto; box-sizing: border-box">
<defs>
</defs>
<g transform="matrix(4.0079 0 0 4.0079 500.008 761.0478)" id="735393">
<g style="" vector-effect="non-scaling-stroke">
		<g transform="matrix(1 0 0 1 0.0003 -59.7685)" id="OBJECTS">
<linearGradient id="SVGID_6" gradientUnits="userSpaceOnUse" gradientTransform="matrix(1 0 0 1 0 0)" x1="280.0826" y1="211.2046" x2="208.0468" y2="111.5029">
<stop offset="0%" style="stop-color:rgb(178, 3, 201);stop-opacity: 1"/>
<stop offset="100%" style="stop-color:rgb(207, 45, 191);stop-opacity: 1"/>
</linearGradient>
<path style="stroke: none; stroke-width: 1; stroke-dasharray: none; stroke-linecap: butt; stroke-dashoffset: 0; stroke-linejoin: miter; stroke-miterlimit: 4; is-custom-font: none; font-file-url: none; fill: url(#SVGID_6); fill-rule: nonzero; opacity: 1;" transform=" translate(-250.0003, -190.2315)" d="M 167.742 87.451 c 0 0 15.824 13.443 46.128 17.123 c 48.751 5.92 107.693 8.253 117.246 45.492 c 11.832 46.123 -71.679 49.757 -90.961 89.213 c -8.208 16.795 -0.642 44.015 12.366 53.733 c 0 0 -41.845 -18.579 -40.988 -61.24 c 0.835 -41.541 46.323 -41.541 37.36 -69.89 C 238.14 127.875 180.233 141.017 167.742 87.451 z" stroke-linecap="round"/>
</g>
		<g transform="matrix(1 0 0 1 -6.941 -109.6195)" id="OBJECTS">
<linearGradient id="SVGID_7" gradientUnits="userSpaceOnUse" gradientTransform="matrix(1 0 0 1 0 0)" x1="167.7417" y1="140.3813" x2="318.376" y2="140.3813">
<stop offset="0%" style="stop-color:rgb(156, 35, 144);stop-opacity: 0"/>
<stop offset="100%" style="stop-color:rgb(117, 2, 137);stop-opacity: 1"/>
</linearGradient>
<path style="stroke: none; stroke-width: 1; stroke-dasharray: none; stroke-linecap: butt; stroke-dashoffset: 0; stroke-linejoin: miter; stroke-miterlimit: 4; is-custom-font: none; font-file-url: none; fill: url(#SVGID_7); fill-rule: nonzero; opacity: 0.4;" transform=" translate(-243.059, -140.3805)" d="M 248.892 161.881 c 1.045 3.306 1.342 6.223 1.064 8.868 c 29.082 9.063 53.098 15.026 54.347 22.562 c 1.242 -0.714 2.461 -1.435 3.655 -2.164 c 5.666 -3.924 15.173 -13.243 7.616 -28.358 c -10.339 -20.678 -40.729 -22.855 -72.604 -29.113 c -31.875 -6.258 -64.163 -8.649 -75.228 -46.226 C 180.233 141.017 238.14 127.875 248.892 161.881 z" stroke-linecap="round"/>
</g>
		<g transform="matrix(1 0 0 1 7.3843 -39.1815)" id="OBJECTS">
<linearGradient id="SVGID_8" gradientUnits="userSpaceOnUse" gradientTransform="matrix(1 0 0 1 0 0)" x1="220.7646" y1="268.9502" x2="264.0906" y2="134.2745">
<stop offset="0%" style="stop-color:rgb(251, 116, 13);stop-opacity: 1"/>
<stop offset="100%" style="stop-color:rgb(247, 111, 13);stop-opacity: 1"/>
</linearGradient>
<path style="stroke: none; stroke-width: 1; stroke-dasharray: none; stroke-linecap: butt; stroke-dashoffset: 0; stroke-linejoin: miter; stroke-miterlimit: 4; is-custom-font: none; font-file-url: none; fill: url(#SVGID_8); fill-rule: nonzero; opacity: 1;" transform=" translate(-257.3843, -210.8185)" d="M 312.843 176.845 c -4.552 -35.614 -67.192 -28.223 -111.099 -48.22 c 0.036 0.018 0.072 0.036 0.107 0.054 c 0.3 0.14 0.602 0.29 0.906 0.449 c 19.33 9.456 40.118 13.721 46.136 32.754 c 8.963 28.35 -36.525 28.35 -37.36 69.89 c -0.857 42.661 40.988 61.24 40.988 61.24 c -13.008 -9.718 -20.574 -36.938 -12.366 -53.733 c 10.698 -21.89 41.161 -32.756 64.149 -45.967 C 312.129 187.149 313.616 182.897 312.843 176.845 z" stroke-linecap="round"/>
</g>
		<g transform="matrix(1 0 0 1 -7.0329 -47.686)" id="OBJECTS">
<linearGradient id="SVGID_9" gradientUnits="userSpaceOnUse" gradientTransform="matrix(1 0 0 1 0 0)" x1="201.8554" y1="202.312" x2="284.0834" y2="202.312">
<stop offset="0%" style="stop-color:rgb(192, 89, 11);stop-opacity: 0"/>
<stop offset="100%" style="stop-color:rgb(162, 45, 9);stop-opacity: 1"/>
</linearGradient>
<path style="stroke: none; stroke-width: 1; stroke-dasharray: none; stroke-linecap: butt; stroke-dashoffset: 0; stroke-linejoin: miter; stroke-miterlimit: 4; is-custom-font: none; font-file-url: none; fill: url(#SVGID_9); fill-rule: nonzero; opacity: 0.4;" transform=" translate(-242.9671, -202.314)" d="M 221.947 137.583 c 0.245 0.109 0.491 0.217 0.735 0.327 c 0.353 0.158 0.703 0.318 1.052 0.478 c 0.328 0.15 0.654 0.301 0.98 0.452 c 0.319 0.149 0.638 0.298 0.954 0.448 c 0.398 0.189 0.791 0.381 1.183 0.573 c 0.243 0.119 0.49 0.237 0.731 0.357 c 0.602 0.3 1.195 0.605 1.783 0.914 c 0.223 0.117 0.441 0.238 0.662 0.356 c 0.403 0.217 0.803 0.436 1.198 0.658 c 0.235 0.132 0.469 0.266 0.702 0.4 c 0.402 0.232 0.799 0.469 1.193 0.708 c 0.197 0.119 0.396 0.237 0.59 0.358 c 0.567 0.353 1.125 0.712 1.671 1.081 c 0.124 0.084 0.242 0.171 0.365 0.255 c 0.434 0.298 0.862 0.602 1.282 0.912 c 0.185 0.137 0.367 0.277 0.55 0.416 c 0.363 0.277 0.721 0.56 1.073 0.848 c 0.172 0.141 0.346 0.281 0.515 0.424 c 0.438 0.37 0.866 0.748 1.283 1.136 c 0.064 0.06 0.132 0.116 0.195 0.176 c 0.473 0.445 0.929 0.906 1.375 1.376 c 0.135 0.142 0.264 0.29 0.396 0.434 c 0.316 0.346 0.625 0.698 0.925 1.058 c 0.141 0.169 0.281 0.339 0.419 0.512 c 0.308 0.385 0.605 0.78 0.895 1.183 c 0.099 0.138 0.203 0.272 0.3 0.412 c 0.376 0.54 0.735 1.096 1.078 1.668 c 0.076 0.126 0.144 0.259 0.218 0.387 c 0.264 0.457 0.519 0.924 0.762 1.402 c 0.101 0.199 0.199 0.403 0.296 0.606 c 0.213 0.444 0.415 0.899 0.609 1.362 c 0.083 0.198 0.168 0.393 0.248 0.595 c 0.259 0.659 0.506 1.33 0.726 2.028 c 1.261 3.987 1.444 7.413 0.827 10.473 c -0.206 1.02 -0.501 1.999 -0.874 2.945 c -0.125 0.315 -0.258 0.627 -0.4 0.935 c -3.117 6.777 -10.29 11.883 -17.493 18.154 c -0.327 0.285 -0.655 0.573 -0.982 0.863 c -1.636 1.451 -3.264 2.969 -4.836 4.587 c -0.314 0.324 -0.627 0.651 -0.937 0.983 c -2.478 2.655 -4.79 5.584 -6.744 8.923 c -0.244 0.417 -0.483 0.841 -0.715 1.272 c -0.93 1.722 -1.765 3.55 -2.48 5.503 c -0.536 1.464 -1.004 2.998 -1.395 4.609 c -0.26 1.074 -0.486 2.182 -0.675 3.326 c -0.377 2.289 -0.603 4.723 -0.656 7.319 c -0.023 1.155 -0.009 2.289 0.028 3.409 c 0.004 0.106 0.004 0.214 0.008 0.319 c 0.041 1.063 0.113 2.107 0.206 3.138 c 0.013 0.15 0.025 0.3 0.04 0.449 c 0.098 1.003 0.222 1.99 0.366 2.962 c 0.024 0.16 0.048 0.32 0.073 0.48 c 0.152 0.965 0.324 1.916 0.519 2.852 c 0.03 0.146 0.063 0.291 0.094 0.436 c 0.205 0.947 0.428 1.882 0.674 2.798 c 0.028 0.105 0.059 0.209 0.088 0.314 c 0.262 0.953 0.541 1.893 0.844 2.813 c 0.009 0.027 0.019 0.053 0.027 0.079 c 0.314 0.948 0.649 1.878 1.003 2.79 c 0.013 0.034 0.026 0.07 0.039 0.104 c 0.349 0.893 0.718 1.767 1.103 2.627 c 0.036 0.08 0.07 0.161 0.107 0.241 c 0.378 0.835 0.772 1.653 1.18 2.457 c 0.046 0.091 0.092 0.183 0.139 0.274 c 0.41 0.798 0.834 1.581 1.271 2.348 c 0.046 0.08 0.092 0.16 0.137 0.239 c 0.449 0.78 0.909 1.545 1.382 2.293 c 0.028 0.045 0.057 0.089 0.086 0.134 c 2.027 3.186 4.258 6.083 6.572 8.695 c 0.001 0.002 0.003 0.003 0.005 0.005 c 0.583 0.658 1.171 1.298 1.762 1.92 c 0 0 0 0 0.001 0.001 h 0 c 0 0 -18.426 -23.434 -7.486 -49.076 c 15.036 -35.242 71.277 -37.183 61.047 -70.561 c -1.032 -3.368 -4.719 -7.912 -11.433 -9.582 c -21.564 -5.009 -47.841 -8.195 -69.56 -18.057 C 208.576 132.029 215.498 134.72 221.947 137.583 z" stroke-linecap="round"/>
</g>
		<g transform="matrix(1 0 0 1 -6.3793 4.342)" id="OBJECTS">
<linearGradient id="SVGID_10" gradientUnits="userSpaceOnUse" gradientTransform="matrix(1 0 0 1 0 0)" x1="245.2199" y1="228.3951" x2="235.1286" y2="296.3788">
<stop offset="0%" style="stop-color:rgb(250, 97, 21);stop-opacity: 1"/>
<stop offset="100%" style="stop-color:rgb(162, 3, 183);stop-opacity: 1"/>
</linearGradient>
<path style="stroke: none; stroke-width: 1; stroke-dasharray: none; stroke-linecap: butt; stroke-dashoffset: 0; stroke-linejoin: miter; stroke-miterlimit: 4; is-custom-font: none; font-file-url: none; fill: url(#SVGID_10); fill-rule: nonzero; opacity: 1;" transform=" translate(-243.6208, -254.342)" d="M 263.401 215.672 L 263.401 215.672 c -0.001 -0.001 -57.077 28.551 -34.114 60.278 c 11.075 11.659 23.233 17.062 23.233 17.062 c -13.008 -9.718 -20.574 -36.938 -12.366 -53.733 C 244.856 229.658 253.376 222.168 263.401 215.672 z" stroke-linecap="round"/>
</g>
</g>
</g>
</svg>