<?xml version="1.0" encoding="utf-8"?>
<!-- Generator: Adobe Illustrator 27.5.0, SVG Export Plug-In . SVG Version: 6.00 Build 0)  -->
<svg version="1.1" xmlns="http://www.w3.org/2000/svg" xmlns:xlink="http://www.w3.org/1999/xlink" x="0px" y="0px"
	 viewBox="0 0 800 800" style="enable-background:new 0 0 800 800;" xml:space="preserve">
<g id="Objects">
	<g>
		<path style="opacity:0.35;fill:#91489f;" d="M142.469,371.99c6.307-58.38,32.075-111.004,70.667-151.253
			c-7.619-8.997-15.475-17.778-23.731-26.195c-47.773,48.977-76.489,111.708-82.422,179.183
			C118.77,372.717,130.624,372.107,142.469,371.99z"/>
		<path style="opacity:0.35;fill:#91489f;" d="M215.184,629.013c6.977-9.501,13.892-19.047,20.752-28.632
			c-51.216-42.055-86.095-103.31-93.501-172.668c-11.746,0.122-23.498,0.727-35.175,1.721c6.659,67.51,36.17,130.114,84.772,178.716
			C199.435,615.552,207.164,622.51,215.184,629.013z"/>
		<path style="opacity:0.35;fill:#91489f;" d="M363.829,656.671c-27.798-3.919-54.186-12.277-78.441-24.308
			c-5.534,10.383-10.933,20.836-16.254,31.33c29.639,14.767,61.647,24.444,94.956,28.491
			C364.317,680.345,364.265,668.506,363.829,656.671z"/>
		<path style="opacity:0.35;fill:#91489f;" d="M608.33,191.851c-55.599-55.599-129.52-86.218-208.149-86.218
			c-45.471,0-89.354,10.264-129.04,29.658c5.471,10.424,10.832,20.903,16.087,31.435c34.16-16.615,72.481-25.96,112.953-25.96
			c102.553,0,191.384,59.862,233.398,146.476c11.022-4.242,22.072-8.409,33.146-12.518
			C652.414,244.327,632.793,216.314,608.33,191.851z"/>
		<path style="opacity:0.35;fill:#91489f;" d="M679.125,480.165c-10.415-1.343-20.852-2.498-31.307-3.422
			c-29.101,93.708-110.045,164.798-209.135,179.617c0.961,11.718,1.719,23.447,2.304,35.185
			c63.151-8.702,121.483-37.536,167.343-83.396c36.007-36.007,61.52-79.703,75.041-127.381
			C681.956,480.566,680.541,480.361,679.125,480.165z"/>
		<path style="opacity:0.35;fill:#91489f;" d="M400.181,662.285c-144.624,0-262.285-117.66-262.285-262.285
			c0-144.624,117.661-262.285,262.285-262.285c86.79,0,163.856,42.381,211.623,107.526c4.092-2.645,8.201-5.265,12.324-7.861
			c-8.477-11.625-17.916-22.674-28.285-33.043c-52.264-52.263-121.75-81.046-195.662-81.046c-73.912,0-143.4,28.783-195.663,81.046
			S123.472,326.088,123.472,400c0,73.912,28.783,143.398,81.046,195.662c52.263,52.265,121.751,81.047,195.663,81.047
			c73.912,0,143.398-28.782,195.662-81.047c50.826-50.825,79.437-117.94,80.973-189.572h-14.427
			C659.14,547.913,542.769,662.285,400.181,662.285z"/>
		<path style="opacity:0.35;fill:#91489f;" d="M706.931,415.09c-7.895,162.366-142.461,292.034-306.75,292.034
			C230.832,707.124,93.057,569.349,93.057,400S230.832,92.876,400.181,92.876c129.695,0,240.87,80.809,285.824,194.72h5.626
			c-15.476-40.166-39.336-77.01-70.687-108.36c-58.969-58.968-137.371-91.443-220.764-91.443
			c-83.394,0-161.796,32.475-220.764,91.443C120.449,238.204,87.974,316.606,87.974,400c0,83.393,32.475,161.795,91.443,220.764
			c58.966,58.968,137.369,91.443,220.764,91.443c83.393,0,161.795-32.476,220.764-91.443
			c55.398-55.398,87.408-127.947,91.082-205.674H706.931z"/>
		<path style="opacity:0.45;fill:#d32c00;" d="M340.678,475.504c1.659-1.987,3.332-3.958,5.011-5.916
			c-20.19-16.458-33.095-41.51-33.095-69.588c0-30.2,14.919-56.912,37.785-73.179c-1.226-2.287-2.48-4.56-3.774-6.81
			c-25.238,17.62-41.751,46.875-41.751,79.989C304.854,430.445,318.814,457.626,340.678,475.504z"/>
		<path style="opacity:0.65;fill:#91489f;" d="M499.151,440.529c-15.887,37.804-53.293,64.419-96.803,64.419
			c-57.868,0-104.948-47.08-104.948-104.948c0-57.869,47.08-104.948,104.948-104.948c39.178,0,73.404,21.582,91.432,53.478h2.291
			c-18.219-33.042-53.398-55.478-93.723-55.478c-58.971,0-106.948,47.977-106.948,106.948s47.977,106.948,106.948,106.948
			c44.635,0,82.963-27.486,98.965-66.419H499.151z"/>
		<path style="opacity:0.45;fill:#d05e00;" d="M342.4,503.861c-35.839-20.767-60-59.544-60-103.861
			c0-66.14,53.809-119.948,119.948-119.948c9.34,0,18.43,1.084,27.158,3.113c0.584-1.442,1.158-2.887,1.76-4.322
			c0.18-0.431,0.363-0.866,0.547-1.3c-9.457-2.276-19.32-3.491-29.465-3.491c-69.448,0-125.948,56.5-125.948,125.948
			c0,47.015,25.897,88.088,64.172,109.723C341.175,507.767,341.788,505.814,342.4,503.861z"/>
		<path style="opacity:0.45;fill:#d05e00;" d="M521.415,414.529c-7.193,59.313-57.844,105.419-119.066,105.419
			c-2.245,0-4.473-0.067-6.688-0.189c-0.614,1.964-1.225,3.928-1.828,5.896c2.816,0.188,5.654,0.294,8.516,0.294
			c64.535,0,117.879-48.79,125.105-111.419H521.415z"/>
		<path style="opacity:0.65;fill:#91489f;" d="M511.657,474.529c-23.857,34.881-63.951,57.818-109.309,57.818
			c-72.976,0-132.347-59.371-132.347-132.348s59.371-132.348,132.347-132.348c39.475,0,74.961,17.377,99.23,44.877h2.656
			c-24.658-28.681-61.186-46.877-101.887-46.877c-74.079,0-134.347,60.268-134.347,134.348c0,74.079,60.268,134.348,134.347,134.348
			c46.527,0,87.603-23.779,111.725-59.818H511.657z"/>
		<path style="opacity:0.65;fill:#d86608;" d="M220.52,374.423c3.893,0.512,7.778,1.068,11.658,1.655
			c11.678-83.472,83.534-147.923,170.171-147.923c15.627,0,30.768,2.11,45.164,6.038c3.898-7.584,7.928-15.095,12.117-22.516
			c-18.133-5.53-37.361-8.522-57.281-8.522c-99.355,0-181.74,73.996-194.974,169.771
			C211.799,373.346,216.188,373.853,220.52,374.423z"/>
		<path style="opacity:0.65;fill:#d86608;" d="M579.556,477.526c-0.711-0.323-1.426-0.633-2.137-0.951
			c-0.352-0.142-0.682-0.272-0.939-0.37c-2.732-1.042-5.482-2.049-8.279-2.904c-3.084-0.942-6.188-1.757-9.326-2.426
			c-27.043,59.495-87.027,100.97-156.525,100.97c-70.358,0-130.957-42.513-157.504-103.192c-8.21,1.976-16.415,3.966-24.587,6.065
			c29.479,71.595,99.987,122.127,182.091,122.127c80.469,0,149.799-48.541,180.285-117.874
			C581.61,478.484,580.587,477.995,579.556,477.526z"/>
		<path style="opacity:0.45;fill:#d05e00;" d="M236.613,336.883c24.304-63.597,84.216-109.736,155.225-113.908
			c-0.003-0.668-0.008-1.335-0.012-2.003C319.833,225.159,259.102,272,234.602,336.535
			C235.273,336.647,235.944,336.763,236.613,336.883z"/>
		<path style="opacity:0.45;fill:#d05e00;" d="M225.225,391.116c-0.64-0.12-1.279-0.243-1.922-0.354
			c-0.02-0.002-0.039-0.003-0.059-0.005c-0.156,3.061-0.239,6.143-0.239,9.242c0,13.419,1.488,26.496,4.297,39.08
			c0.631-0.23,1.261-0.464,1.893-0.692c-2.74-12.365-4.19-25.21-4.19-38.388C225.004,397.022,225.08,394.06,225.225,391.116z"/>
		<path style="opacity:0.45;fill:#d05e00;" d="M247.686,490.68c6.596,11.203,14.363,21.637,23.149,31.117
			c0.382-0.567,0.76-1.139,1.141-1.708c-8.469-9.187-15.974-19.273-22.373-30.088C248.963,490.225,248.325,490.454,247.686,490.68z"
			/>
		<path style="opacity:0.45;fill:#d05e00;" d="M578.727,418.529c-9.293,89.112-84.848,158.815-176.379,158.815
			c-31.487,0-61.079-8.259-86.738-22.71c-0.376,0.554-0.754,1.105-1.131,1.658c25.984,14.667,55.965,23.052,87.87,23.052
			c92.635,0,169.09-70.598,178.393-160.815H578.727z"/>
		<path style="opacity:0.45;fill:#d05e00;" d="M553.161,476.529c-28.078,54.459-85.139,91.815-150.812,91.815
			c-93.376,0-169.344-75.52-169.344-168.345c0-92.826,75.968-168.345,169.344-168.345c55.973,0,105.682,27.142,136.531,68.874h2.481
			c-31.145-42.897-81.852-70.874-139.012-70.874c-94.48,0-171.344,76.417-171.344,170.345c0,93.929,76.865,170.345,171.344,170.345
			c66.813,0,124.807-38.219,153.049-93.815H553.161z"/>
		<path style="opacity:0.45;fill:#d05e00;" d="M446.005,198.473c-14.08-3.014-28.682-4.613-43.656-4.613
			c-16.42,0-32.398,1.917-47.727,5.521c0.34,1.29,0.681,2.579,1.027,3.867c15.001-3.518,30.634-5.388,46.7-5.388
			c14.438,0,28.523,1.516,42.115,4.375C444.968,200.977,445.481,199.723,446.005,198.473z"/>
		<path style="opacity:0.65;fill:#d05e00;" d="M605.29,412.529c-6.531,105.646-95.051,189.61-202.941,189.61
			c-112.124,0-203.344-90.68-203.344-202.14c0-75.777,42.17-141.936,104.4-176.539c-0.35-1.331-0.698-2.663-1.045-3.995
			C238.411,254.614,195.004,322.357,195.004,400c0,113.666,93.015,206.14,207.344,206.14c110.098,0,200.414-85.757,206.951-193.61
			H605.29z"/>
		<path style="opacity:0.35;fill:#d05e00;" d="M499.841,192.888c-30.123-14.046-63.234-21.457-97.492-21.457
			c-18.392,0-36.45,2.15-53.897,6.3c2.308,8.032,4.265,16.157,5.941,24.348c15.39-3.683,31.445-5.647,47.956-5.647
			c30.617,0,59.672,6.732,85.777,18.757C491.823,207.659,495.751,200.236,499.841,192.888z"/>
		<path style="opacity:0.45;fill:#d05e00;" d="M533.624,587.685c11.045-7.675,21.496-16.364,31.225-26.035
			c32.674-32.483,54.299-73.025,63.008-117.12h-25.613c-11.512,51.072-42.391,94.957-84.543,123.611
			C523.177,574.495,528.487,581.015,533.624,587.685z"/>
		<path style="opacity:0.45;fill:#d32c00;" d="M457.153,596.339c-0.027-0.056-0.057-0.108-0.084-0.164
			c-17.426,4.81-35.773,7.394-54.721,7.394c-112.951,0-204.844-91.321-204.844-203.569c0-68.092,33.835-128.455,85.655-165.429
			c-4.921-6.829-9.502-13.915-13.425-21.286c-10.549,7.434-20.553,15.791-29.883,25.066
			C196.422,281.526,172.504,338.934,172.504,400c0,61.067,23.917,118.476,67.346,161.649c43.409,43.154,101.119,66.92,162.498,66.92
			c19.799,0,39.209-2.489,57.885-7.292C458.923,612.983,457.821,604.672,457.153,596.339z"/>
		<path style="opacity:0.45;fill:#d32c00;" d="M402.349,588.14c-104.359,0-189.262-84.399-189.262-188.14
			c0-103.741,84.903-188.14,189.262-188.14c46.115,0,88.42,16.487,121.287,43.834c1.207-0.738,2.434-1.448,3.674-2.134
			c-33.715-28.486-77.35-45.7-124.961-45.7c-106.564,0-193.262,86.193-193.262,192.14s86.697,192.14,193.262,192.14
			c103.012,0,187.451-80.542,192.969-181.61h-4.008C585.796,509.39,503.153,588.14,402.349,588.14z"/>
		<path style="opacity:0.45;fill:#91489f;" d="M516.016,284.311c12.037-9.951,24.003-19.988,35.916-30.087
			c8.281-7.021,16.537-14.073,24.787-21.133c-3.729-3.942-7.578-7.768-11.561-11.454c-19.014,20.139-38.007,40.295-57.224,60.238
			c1.733,1.583,3.423,3.213,5.086,4.869C514.022,285.935,515.026,285.129,516.016,284.311z"/>
		<path style="opacity:0.35;fill:#91489f;" d="M636.024,458.532c2.538-10.24,4.443-20.731,5.631-31.44h-83.852
			c-1.068,6.258-2.516,12.384-4.291,18.369C576.719,450.333,631.168,457.248,636.024,458.532z"/>
		<path style="opacity:0.35;fill:#91489f;" d="M372.609,158.589c-121.212,13.693-215.415,116.54-215.415,241.413
			c0,16.846,1.725,33.289,4.994,49.167c24.269-7.983,77.958-22.95,80.004-24.296c-1.266-8.105-1.928-16.41-1.928-24.871
			c0-83.43,63.894-151.928,145.417-159.257c0.173-2.529,0.372-5.057,0.553-7.585C382.215,208.224,377.053,183.456,372.609,158.589z"
			/>
		<path style="opacity:0.35;fill:#91489f;" d="M511.404,514.892c-28.779,27.871-67.995,45.027-111.223,45.027
			c-59.626,0-111.624-32.639-139.121-81.018c-23.132,14.939-46.755,29.105-71.031,42.13c-0.15,0.081-0.302,0.159-0.452,0.239
			c41.982,72.75,120.573,121.717,210.604,121.717c67.321,0,128.234-27.387,172.233-71.618
			C551.815,552.85,531.587,533.902,511.404,514.892z"/>
		<path style="opacity:0.45;fill:#91489f;" d="M288.945,373.094c10.23-41.026,42.564-73.161,84.499-82.661
			c-1.024-5.712-2.111-11.432-3.176-17.033c-0.183-0.96-0.366-1.925-0.55-2.895c-26.956,6.018-51.507,20.32-70.228,41.136
			c-15.771,17.535-26.479,38.73-31.319,61.454H288.945z"/>
		<path style="opacity:0.45;fill:#91489f;" d="M486.935,490.536c-3.475-2.24-7.02-4.385-10.65-6.369
			c-20.363,18.932-47.626,30.298-77.318,30.298c-51.42,0-94.952-34.39-108.824-81.374h-21.058
			c5.748,23.457,17.801,44.977,35.316,62.491c25.259,25.259,58.844,39.17,94.566,39.17c33.118,0,64.894-12.197,89.473-34.344
			c1.852-1.668,3.647-3.387,5.392-5.147C491.563,493.643,489.278,492.046,486.935,490.536z"/>
		<path style="opacity:0.45;fill:#91489f;" d="M517.565,421.092c-1.991,10.284-5.412,20.339-10.257,29.853
			c6.141,2.848,12.107,6.095,17.952,9.588c5.8-11.255,9.936-23.296,12.325-35.814C536.858,424.417,517.565,421.092,517.565,421.092z
			"/>
		<path style="opacity:0.45;fill:#91489f;" d="M500.843,304.809c-21.297-21.296-48.941-34.671-78.625-38.214
			c-1.652,6.58-3.217,13.182-4.718,19.799c25.302,2.52,49.793,13.557,68.997,32.761c2.548,2.548,4.936,5.194,7.186,7.917
			c0.246-0.127,0.495-0.251,0.741-0.378c4.303-4.989,8.721-9.847,13.158-14.596C505.434,309.6,503.196,307.163,500.843,304.809z"/>
	</g>
</g>
</svg>
